<?xml version="1.0" standalone="no"?>
<!DOCTYPE svg PUBLIC "-//W3C//DTD SVG 20010904//EN"
 "http://www.w3.org/TR/2001/REC-SVG-20010904/DTD/svg10.dtd">
<svg version="1.0" xmlns="http://www.w3.org/2000/svg"
 width="2041.000000pt" height="2048.000000pt" viewBox="0 0 2041.000000 2048.000000"
 preserveAspectRatio="xMidYMid meet">
<metadata>
Created by potrace 1.15, written by Peter Selinger 2001-2017
</metadata>
<g transform="translate(0.000000,2048.000000) scale(0.100000,-0.100000)"
fill="#000000" stroke="none">
<path d="M0 18886 l0 -1594 88 -43 c48 -24 88 -47 90 -51 2 -5 9 -8 16 -8 6 0
43 -16 80 -35 38 -19 74 -35 81 -35 8 0 15 -4 17 -8 3 -7 95 -55 358 -187 30
-15 62 -31 70 -35 15 -9 70 -36 180 -88 30 -15 81 -42 113 -59 33 -18 63 -33
67 -33 4 0 36 -16 70 -35 34 -19 68 -35 76 -35 8 0 17 -7 20 -15 4 -8 15 -15
25 -15 10 0 24 -9 31 -20 7 -11 19 -20 27 -20 8 0 12 -3 8 -6 -7 -8 -162 44
-192 63 -11 7 -29 13 -41 13 -11 0 -34 7 -51 15 -17 8 -52 19 -77 24 -26 5
-53 14 -59 20 -6 6 -21 11 -33 11 -13 0 -25 4 -29 9 -3 5 -20 12 -38 16 -30 6
-129 37 -172 54 -49 19 -92 33 -115 38 -14 2 -34 9 -45 14 -30 14 -137 50
-165 56 -14 2 -52 15 -85 28 -33 13 -80 28 -105 35 -40 11 -84 26 -145 50 -11
5 -30 11 -42 13 l-23 5 0 -232 0 -233 33 1 c17 0 214 -5 437 -12 223 -7 513
-15 645 -17 132 -3 259 -7 281 -11 26 -4 44 -2 48 5 8 13 48 15 62 3 8 -8 83
-28 194 -53 25 -6 61 -14 80 -19 19 -5 69 -16 110 -25 41 -10 98 -23 125 -31
28 -8 76 -18 108 -24 31 -5 63 -12 70 -17 6 -4 32 -10 57 -14 25 -4 65 -13 90
-19 81 -22 194 -49 265 -65 39 -8 86 -19 105 -24 154 -39 304 -73 350 -80 25
-4 51 -10 58 -14 6 -5 33 -12 60 -17 59 -10 171 -37 238 -56 28 -8 58 -14 68
-14 9 0 24 -4 34 -9 9 -5 58 -17 107 -26 50 -9 98 -21 107 -26 9 -5 32 -9 52
-9 19 0 38 -4 41 -10 3 -5 26 -10 51 -10 32 0 44 -4 44 -15 0 -8 -6 -15 -14
-15 -8 0 -16 -3 -18 -8 -1 -4 -28 -28 -58 -52 -30 -25 -68 -57 -85 -73 -16
-15 -38 -30 -48 -33 -9 -3 -17 -10 -17 -15 0 -5 -4 -9 -10 -9 -5 0 -28 -17
-50 -37 -55 -52 -68 -63 -76 -63 -4 0 -14 -8 -23 -18 -9 -10 -37 -33 -63 -52
-27 -18 -48 -36 -48 -40 0 -4 -11 -12 -24 -18 -19 -8 -42 -6 -113 15 -48 14
-96 29 -105 34 -10 5 -24 9 -32 9 -8 0 -52 11 -98 26 -46 14 -101 30 -123 36
-22 5 -51 15 -65 20 -14 6 -41 14 -60 19 -19 4 -75 19 -125 34 -49 14 -103 29
-120 31 -16 3 -39 9 -50 15 -11 5 -38 13 -60 18 -22 6 -56 14 -75 20 -19 5
-51 14 -70 20 -40 11 -130 37 -175 51 -40 12 -159 46 -215 61 -25 7 -59 18
-77 25 -17 8 -39 14 -49 14 -10 0 -43 8 -73 19 -50 16 -101 31 -211 61 -95 26
-217 62 -235 69 -22 9 -106 31 -145 38 -14 2 -34 9 -45 14 -11 5 -46 15 -77
23 -31 8 -66 19 -77 25 -11 6 -36 11 -55 11 -20 0 -36 4 -36 9 0 5 -17 12 -37
15 -21 4 -49 11 -63 16 -14 5 -59 18 -100 30 -79 22 -129 36 -245 70 -74 22
-145 42 -235 67 -30 9 -65 20 -78 24 -13 5 -32 9 -42 9 -20 0 -20 -60 -20
-6610 0 -4190 3 -6610 10 -6610 5 0 20 -11 34 -25 13 -13 37 -27 53 -31 15 -4
34 -16 41 -26 7 -10 20 -18 28 -18 8 0 17 -7 20 -15 4 -8 11 -15 17 -15 5 0
25 -11 43 -25 18 -14 39 -25 48 -25 24 0 30 -20 10 -35 -11 -8 -32 -14 -49
-14 -16 0 -24 3 -18 6 7 2 13 13 13 24 0 14 -7 19 -25 19 -18 0 -25 5 -25 20
0 28 -56 29 -65 1 -7 -24 -35 -34 -63 -24 -20 8 -22 11 -22 33 0 6 -11 10 -25
10 -22 0 -25 -4 -25 -33 0 -18 5 -38 12 -45 9 -9 9 -12 0 -12 -18 0 -14 -41 6
-56 16 -13 16 -13 0 -14 -16 0 -18 -11 -18 -96 l0 -96 23 14 c12 8 33 21 47
29 13 8 35 24 49 37 14 12 31 22 37 22 5 0 19 8 30 18 10 10 26 21 34 25 45
22 133 83 152 104 16 17 34 19 170 21 84 2 205 7 268 12 63 5 187 9 275 9 88
1 194 3 235 6 41 3 206 10 365 17 160 6 337 13 395 15 147 6 182 6 208 2 31
-5 28 -19 -5 -19 -24 0 -192 -58 -235 -81 -10 -5 -28 -9 -41 -9 -12 0 -60 -16
-106 -35 -45 -19 -91 -35 -101 -35 -10 0 -25 -7 -34 -15 -8 -8 -30 -15 -49
-15 -19 0 -40 -6 -46 -14 -7 -8 -34 -17 -62 -21 -27 -4 -56 -13 -64 -21 -7 -8
-28 -14 -45 -14 -17 0 -42 -7 -55 -16 -31 -20 -213 -84 -240 -84 -12 0 -25 -4
-31 -9 -5 -4 -34 -16 -64 -26 -30 -10 -71 -26 -91 -36 -20 -11 -46 -19 -58
-19 -12 0 -32 -6 -44 -14 -12 -8 -38 -17 -57 -21 -19 -4 -48 -13 -65 -20 -16
-7 -55 -21 -85 -30 -30 -10 -63 -21 -72 -26 -10 -5 -23 -9 -29 -9 -12 0 -134
-46 -161 -61 -10 -5 -26 -9 -36 -9 -9 0 -26 -6 -37 -14 -11 -7 -36 -16 -55
-19 -46 -7 -164 -49 -168 -59 -2 -4 -16 -8 -31 -8 -15 0 -32 -5 -38 -11 -6 -6
-26 -14 -45 -18 l-33 -7 -3 -306 -2 -306 167 70 c92 38 183 76 202 84 52 23
68 30 146 59 39 15 90 38 114 51 24 13 49 24 56 24 7 0 26 7 41 15 16 8 36 15
44 15 8 0 26 9 40 20 26 21 94 27 105 10 3 -6 14 -10 23 -10 9 0 40 -12 67
-25 28 -14 55 -25 62 -25 6 0 24 -7 40 -15 15 -8 62 -27 103 -43 63 -25 235
-93 305 -122 41 -16 182 -72 247 -96 72 -28 78 -42 29 -70 -14 -8 -38 -22 -53
-32 -14 -9 -68 -44 -120 -77 -51 -33 -102 -67 -112 -77 -11 -10 -24 -18 -29
-18 -5 0 -32 -16 -58 -35 -27 -19 -53 -35 -58 -35 -5 0 -11 -4 -13 -8 -1 -5
-34 -28 -73 -51 -38 -23 -108 -69 -155 -101 -47 -33 -89 -60 -93 -60 -4 0 -20
-11 -35 -25 -15 -14 -32 -25 -38 -25 -6 0 -18 -7 -25 -16 -7 -9 -22 -20 -34
-25 -24 -11 -44 -23 -108 -66 -26 -18 -49 -33 -52 -33 -2 0 -43 -27 -90 -60
-47 -33 -90 -60 -94 -60 -5 0 -14 -7 -21 -15 -7 -8 -35 -28 -64 -44 -28 -17
-60 -37 -71 -46 -11 -9 -72 -49 -135 -90 -63 -41 -120 -79 -127 -84 -7 -6 -17
-11 -23 -11 -5 0 -10 -4 -10 -9 0 -5 -15 -16 -32 -25 -72 -35 -68 -20 -68
-270 l0 -226 6290 0 c5620 0 6294 2 6320 15 26 14 30 14 30 1 0 -13 107 -15
865 -16 736 0 865 2 865 14 0 7 -10 20 -22 28 -13 9 -48 39 -78 67 -30 29 -62
56 -70 61 -9 5 -13 21 -12 44 3 36 -11 49 -22 21 -3 -8 -9 -15 -13 -15 -4 0
-46 36 -93 80 -46 44 -88 80 -92 80 -5 0 -8 6 -8 14 0 8 -12 24 -27 37 -18 14
-23 23 -15 26 29 11 -4 52 -43 53 -21 0 -61 30 -120 88 -19 17 -38 32 -43 32
-5 0 -14 11 -20 25 -7 14 -19 28 -27 31 -24 10 -47 72 -35 95 6 11 16 16 26
12 14 -5 15 0 9 35 -5 34 -4 43 9 48 9 3 16 18 16 33 1 14 7 37 15 51 8 14 14
35 15 47 0 12 6 34 14 50 46 95 56 120 56 135 0 9 6 29 14 45 7 15 20 48 28
73 9 25 22 65 31 90 8 25 19 58 24 75 6 20 18 33 38 40 17 5 32 12 35 15 3 3
41 22 85 43 44 21 87 43 95 48 8 5 22 12 30 15 8 3 24 10 35 16 11 6 43 22 70
36 28 13 67 33 88 44 21 11 43 18 50 15 7 -2 20 -31 30 -63 21 -67 27 -86 67
-199 15 -44 33 -104 40 -132 7 -29 16 -53 21 -53 5 0 9 -18 9 -39 0 -22 6 -52
14 -68 24 -48 49 -126 54 -168 2 -22 15 -55 27 -75 12 -19 25 -53 29 -75 11
-63 16 -75 33 -75 12 0 14 10 9 53 -3 28 -10 182 -15 340 -6 158 -12 291 -15
295 -2 4 -7 93 -11 196 -3 104 -10 197 -15 207 -13 23 -13 39 0 39 6 0 10 -7
10 -15 0 -8 5 -15 11 -15 17 0 38 -31 39 -56 0 -11 4 -24 9 -30 4 -5 21 -45
36 -89 15 -44 31 -84 36 -90 5 -5 9 -16 9 -25 0 -8 7 -28 15 -44 8 -15 15 -37
15 -48 0 -11 7 -26 15 -34 8 -9 15 -25 15 -37 0 -11 8 -39 19 -61 10 -23 26
-61 36 -86 10 -25 24 -58 31 -75 7 -16 16 -43 20 -60 4 -16 17 -52 30 -80 12
-27 24 -59 27 -70 8 -27 35 -102 54 -145 8 -19 21 -50 29 -68 8 -18 14 -41 14
-52 0 -10 4 -21 9 -24 5 -3 12 -18 15 -33 7 -26 36 -97 57 -135 5 -10 9 -22 9
-28 0 -16 81 -233 91 -244 5 -6 9 -19 9 -31 0 -12 4 -25 8 -30 4 -6 16 -35 26
-65 11 -30 23 -59 27 -65 5 -5 9 -21 9 -35 0 -15 8 -34 18 -43 17 -16 205 -17
2495 -17 l2477 0 0 5060 0 5060 -1164 0 c-640 0 -1171 -3 -1180 -6 -14 -5 -16
-29 -16 -158 0 -84 -3 -156 -7 -160 -4 -4 -6 -54 -4 -112 2 -71 -1 -104 -8
-104 -7 0 -11 -29 -11 -80 0 -47 -4 -80 -10 -80 -6 0 -10 -35 -10 -85 0 -47
-3 -85 -7 -85 -5 0 -6 -22 -5 -50 3 -32 0 -50 -7 -50 -7 0 -11 -24 -11 -64 0
-39 -6 -75 -16 -92 l-16 -29 7 45 c3 25 11 83 16 130 5 47 13 108 19 135 5 28
14 109 19 180 6 72 16 191 22 265 7 74 14 189 16 255 2 66 5 130 8 142 l5 23
1180 0 1180 0 0 165 0 165 -1173 0 c-899 0 -1176 3 -1185 12 -8 8 -12 53 -12
132 -1 67 -5 141 -10 166 -5 25 -11 104 -14 175 -2 72 -2 118 0 103 3 -16 10
-28 16 -28 7 0 9 -36 6 -105 -2 -58 0 -105 4 -105 5 0 8 -68 8 -151 0 -117 3
-154 14 -165 13 -12 183 -14 1180 -14 l1166 0 0 1316 c0 1049 -3 1314 -12
1308 -7 -4 -21 -14 -31 -22 -30 -26 -19 6 13 36 l30 29 0 946 0 946 -42 3 -43
4 42 8 43 9 0 1289 c0 1021 -3 1287 -13 1282 -6 -4 -37 -31 -67 -59 -66 -63
-137 -125 -169 -151 -13 -10 -31 -26 -40 -35 -32 -32 -151 -118 -171 -124 -11
-3 -20 -13 -20 -21 0 -8 -9 -14 -21 -14 -17 0 -19 -3 -10 -13 8 -11 4 -20 -19
-40 -34 -30 -50 -34 -50 -12 0 8 8 15 18 16 9 0 12 3 6 5 -14 6 -64 -13 -64
-25 0 -5 9 -11 20 -14 29 -8 24 -24 -15 -49 -19 -13 -35 -28 -35 -34 0 -7 -7
-14 -15 -18 -8 -3 -20 -17 -27 -31 -14 -30 -48 -33 -55 -5 -6 24 -19 26 -27 5
-3 -8 2 -19 12 -24 22 -13 5 -45 -27 -49 -11 -2 -21 -10 -21 -18 0 -11 -173
-189 -282 -291 -7 -6 -31 -30 -52 -52 -22 -23 -43 -41 -48 -41 -4 0 -8 -7 -8
-15 0 -8 -4 -15 -9 -15 -5 0 -26 -17 -48 -37 -21 -21 -60 -57 -86 -80 -26 -22
-47 -46 -47 -52 0 -7 -7 -14 -15 -17 -8 -4 -15 -12 -15 -20 0 -7 -10 -16 -23
-19 -13 -4 -31 -19 -41 -36 -9 -16 -21 -29 -27 -29 -5 0 -53 -46 -107 -101
-53 -56 -106 -109 -116 -118 -10 -9 -48 -44 -83 -78 -35 -35 -68 -63 -74 -63
-5 0 -9 -4 -9 -10 0 -11 -92 -103 -126 -124 -12 -9 -25 -25 -29 -36 -3 -11
-13 -20 -20 -20 -8 0 -22 -11 -31 -25 -9 -13 -24 -27 -35 -30 -10 -4 -19 -11
-19 -16 0 -10 -112 -119 -162 -159 -16 -12 -28 -30 -28 -40 0 -13 -8 -20 -27
-22 -18 -2 -32 -12 -40 -28 -7 -14 -31 -41 -53 -60 -57 -48 -100 -91 -129
-129 -13 -17 -28 -31 -32 -31 -15 0 -10 34 8 60 28 39 53 93 53 112 0 9 5 20
11 23 12 8 59 111 59 131 0 8 4 14 8 14 5 0 16 19 26 43 31 73 71 152 79 155
4 2 7 12 7 23 0 17 57 151 81 189 5 8 12 22 15 30 5 14 42 94 98 210 14 30 26
62 26 71 0 16 19 39 32 39 4 0 8 -11 8 -25 l0 -24 25 25 c30 30 32 48 6 39
-13 -4 -23 0 -29 12 -10 16 -42 17 -496 16 -343 -2 -487 1 -492 9 -4 6 8 24
27 40 19 17 72 64 118 106 46 43 93 85 104 95 85 74 155 135 174 155 13 12 26
22 28 22 2 0 19 15 37 33 18 18 62 57 98 87 36 30 77 66 91 80 38 36 167 150
202 180 16 14 46 40 66 58 20 19 65 59 101 90 36 32 84 75 106 97 46 44 57 52
126 91 26 15 49 33 52 40 3 8 14 14 24 14 11 0 26 7 33 16 7 9 22 20 34 25 11
5 29 15 39 21 10 7 82 55 158 106 77 50 146 92 154 92 8 0 14 4 14 10 0 5 16
16 35 24 19 8 35 20 35 25 0 6 9 11 20 11 11 0 23 7 26 15 4 8 12 15 19 15 6
0 20 9 30 20 10 11 22 20 27 20 5 0 24 11 42 25 18 14 36 25 40 25 9 0 80 52
84 63 2 4 10 7 17 7 15 0 238 148 243 161 2 5 11 9 19 9 9 0 31 11 49 25 18
14 35 25 39 25 3 0 11 5 18 10 30 25 89 60 102 60 8 0 15 4 15 10 0 9 99 77
129 88 9 3 18 8 21 12 15 18 156 113 181 122 16 5 29 13 29 18 0 4 8 10 18 14
45 16 77 44 80 71 3 24 1 27 -11 17 -7 -6 -16 -9 -20 -6 -9 10 4 34 19 34 12
0 14 81 14 515 l0 515 -30 0 c-24 0 -30 4 -30 21 0 26 -23 49 -49 49 -15 0
-21 6 -21 21 0 26 -23 49 -49 49 -15 0 -21 6 -21 21 0 24 -17 44 -48 53 -15 5
-22 15 -22 32 0 13 5 24 10 24 15 0 12 29 -5 46 -12 12 -15 42 -15 134 0 131
1 130 -71 130 l-39 0 0 100 0 100 -150 0 c-128 0 -152 -2 -157 -16 -3 -8 -1
-20 6 -27 13 -13 15 -57 2 -57 -5 0 -11 -33 -14 -72 -2 -40 -10 -109 -16 -153
-13 -93 -38 -313 -52 -470 -5 -60 -14 -126 -19 -145 -6 -19 -10 -53 -10 -76 0
-22 -7 -86 -15 -142 -8 -56 -14 -107 -13 -114 2 -7 -8 -14 -22 -16 -14 -2 -70
-15 -125 -29 -55 -14 -118 -29 -140 -33 -74 -15 -210 -51 -227 -60 -32 -18
-45 -11 -62 33 -9 23 -16 48 -16 55 0 7 -4 20 -10 30 -5 9 -21 49 -35 87 -15
39 -30 79 -35 90 -4 11 -16 42 -25 68 -21 60 -38 67 -74 33 -15 -14 -30 -26
-33 -26 -8 0 -54 -38 -81 -67 -11 -13 -27 -23 -34 -23 -8 0 -16 -7 -19 -15 -4
-8 -11 -15 -16 -15 -10 0 -37 -20 -108 -79 -63 -53 -116 -96 -144 -116 -59
-42 -191 -149 -194 -157 -2 -4 -8 -8 -14 -8 -5 0 -26 -16 -46 -35 -20 -19 -43
-35 -49 -35 -20 0 -15 38 5 45 9 3 31 24 47 46 17 22 49 61 73 87 23 26 45 55
48 65 3 9 9 17 13 17 4 0 30 30 57 67 27 36 54 71 59 77 6 6 24 29 40 51 17
22 35 46 40 53 6 8 19 24 31 35 11 12 33 40 50 62 16 22 35 44 41 48 7 4 13
12 13 18 0 8 41 64 87 119 7 8 28 33 45 54 18 22 43 50 56 62 12 11 22 24 22
28 0 4 5 12 10 19 6 7 24 28 40 47 16 19 30 38 30 42 0 4 16 24 35 45 19 21
35 45 35 53 0 7 19 32 43 55 23 22 56 58 72 80 17 22 36 46 43 53 6 7 12 17
12 21 0 4 20 29 45 57 24 27 44 54 45 61 0 6 11 20 25 31 14 11 25 25 25 30 0
6 15 22 33 36 l32 26 -108 0 c-86 0 -109 -3 -113 -15 -4 -8 -10 -15 -15 -15
-5 0 -9 7 -9 15 0 13 -486 15 -4315 15 l-4315 0 0 -1003 c0 -767 3 -1006 12
-1015 8 -8 46 -12 105 -12 59 0 93 -4 93 -11 0 -13 -189 -1 -207 14 -10 7 -13
223 -13 1018 l0 1009 -170 0 -170 0 0 -1007 c0 -555 -4 -1013 -8 -1019 -10
-15 -212 -29 -212 -14 0 6 37 10 99 10 81 0 100 3 105 16 3 9 6 465 6 1015 l0
999 -4110 0 c-2261 0 -4110 -3 -4110 -6 0 -9 63 -137 71 -144 3 -3 11 -21 19
-40 7 -19 19 -42 27 -51 7 -8 13 -21 13 -27 0 -13 95 -198 112 -219 5 -7 8
-17 6 -23 -4 -12 -42 17 -49 37 -2 6 -30 39 -61 72 -32 34 -58 63 -58 65 0 3
-15 20 -33 38 -18 18 -43 46 -55 61 -12 16 -53 64 -92 107 -39 43 -80 90 -91
104 l-20 26 -830 0 -829 0 0 -1594z m3364 519 c3 -8 15 -15 26 -15 11 0 20 -4
20 -10 0 -5 11 -10 24 -10 14 0 28 -4 31 -10 3 -5 14 -10 24 -10 10 0 24 -7
31 -15 7 -8 23 -15 35 -15 12 0 28 -6 34 -14 7 -8 24 -17 39 -21 15 -3 54 -19
87 -34 75 -35 174 -79 250 -110 36 -16 179 -82 208 -96 16 -8 34 -15 40 -15 7
0 43 -16 81 -35 39 -19 76 -35 84 -35 7 0 28 -12 47 -26 36 -27 44 -53 50
-162 2 -31 11 -102 19 -156 9 -55 16 -120 16 -145 0 -25 7 -73 15 -106 8 -33
14 -81 15 -107 0 -57 37 -350 49 -395 16 -57 -6 -46 -69 34 -33 43 -68 88 -78
99 -10 12 -43 53 -73 90 -29 38 -56 71 -59 74 -4 3 -26 32 -50 65 -24 33 -46
62 -50 65 -18 15 -80 99 -80 109 0 6 -4 11 -8 11 -4 0 -24 21 -44 48 -20 26
-45 57 -55 68 -10 12 -31 39 -48 60 -16 21 -38 46 -47 56 -10 10 -18 22 -18
28 0 5 -9 15 -20 22 -11 7 -20 19 -20 26 0 7 -7 15 -15 18 -8 4 -15 12 -15 19
0 7 -4 15 -8 17 -4 2 -43 48 -87 103 -44 55 -83 102 -87 103 -5 2 -8 8 -8 13
0 10 -26 44 -52 68 -10 8 -18 21 -18 28 0 7 -3 13 -8 13 -4 0 -27 26 -52 58
-24 31 -48 59 -52 60 -4 2 -8 10 -8 17 0 7 -4 15 -8 17 -14 5 -122 145 -122
157 0 16 27 13 34 -4z m14679 -615 c53 -288 59 -333 46 -375 -7 -22 -15 -44
-19 -50 -3 -5 -19 -44 -34 -85 -16 -41 -33 -79 -37 -84 -5 -6 -9 -18 -9 -28 0
-9 -11 -41 -24 -70 -44 -99 -76 -179 -76 -193 0 -8 -11 -35 -25 -61 -14 -26
-25 -54 -25 -62 0 -8 -15 -47 -34 -86 -27 -55 -44 -77 -77 -98 -24 -16 -51
-28 -61 -28 -10 0 -18 -4 -18 -10 0 -5 -7 -10 -15 -10 -8 0 -23 -4 -33 -9 -18
-11 -144 -67 -177 -80 -11 -5 -54 -25 -96 -45 -42 -20 -83 -36 -92 -36 -10 0
-17 -4 -17 -10 0 -5 -5 -10 -11 -10 -10 0 -62 -23 -175 -76 -28 -13 -55 -24
-59 -24 -5 0 -40 -15 -79 -34 -106 -51 -184 -86 -191 -86 -3 0 -30 -11 -58
-24 -74 -35 -208 -96 -232 -106 -11 -5 -42 -19 -70 -30 -54 -23 -136 -61 -255
-117 -41 -19 -91 -42 -110 -50 -19 -9 -43 -20 -52 -24 -24 -12 -68 -11 -68 0
0 5 10 13 23 16 12 4 31 15 42 24 11 9 37 26 58 36 20 11 37 23 37 27 0 5 5 8
11 8 6 0 32 14 57 32 93 63 101 68 110 68 4 0 17 8 28 18 10 10 48 36 84 57
36 22 71 46 78 52 7 7 20 13 28 13 8 0 14 3 14 8 0 4 33 26 73 50 107 64 109
66 131 84 11 10 28 20 38 24 10 3 18 10 18 15 0 5 9 9 20 9 11 0 23 7 26 15 4
8 12 15 20 15 8 0 14 5 14 10 0 6 5 10 11 10 6 0 33 16 59 35 26 19 50 35 54
35 3 0 29 16 56 35 27 19 54 35 60 35 6 0 13 7 16 15 4 8 11 15 17 15 14 0 77
62 77 76 0 7 7 15 15 18 9 3 23 22 31 41 8 19 23 41 34 47 11 7 20 18 20 25 0
7 7 21 15 31 49 55 75 91 75 100 0 6 6 15 13 19 8 4 22 22 33 38 10 17 26 37
36 46 10 9 18 20 18 25 0 5 11 21 23 35 13 13 37 45 53 69 16 25 33 50 39 56
5 6 19 23 30 38 11 16 26 34 33 41 6 8 12 18 12 24 0 6 4 11 8 11 4 0 31 35
60 78 29 42 65 94 82 115 16 21 38 50 49 65 12 15 46 61 76 102 31 41 61 82
68 91 20 26 37 53 47 77 16 38 43 24 53 -28z m-13454 13 c19 -16 50 -44 70
-63 20 -19 50 -46 66 -58 34 -26 134 -114 175 -152 15 -14 51 -45 80 -70 106
-90 175 -152 178 -161 2 -5 8 -9 13 -9 6 0 20 -10 33 -22 13 -13 46 -42 73
-65 27 -23 66 -58 86 -77 21 -19 58 -52 84 -73 26 -21 61 -50 77 -65 16 -16
33 -28 37 -28 5 0 9 -7 9 -15 0 -8 6 -15 13 -15 6 0 29 -16 49 -35 20 -19 39
-35 41 -35 2 0 27 -21 54 -47 27 -27 101 -91 163 -143 62 -52 133 -113 156
-135 24 -22 67 -60 95 -85 28 -25 57 -51 65 -57 7 -7 15 -13 18 -13 3 0 19
-14 36 -30 32 -31 64 -33 82 -6 5 6 8 7 8 1 0 -12 -46 -49 -120 -95 -30 -19
-62 -40 -70 -47 -8 -6 -44 -31 -80 -55 -136 -92 -165 -112 -168 -120 -2 -4
-14 -8 -28 -8 -16 0 -22 4 -18 15 5 13 -14 47 -53 95 -7 8 -32 42 -57 75 -25
33 -49 65 -53 70 -31 39 -226 299 -263 349 -24 33 -48 63 -52 64 -4 2 -8 8 -8
13 0 5 -44 67 -97 137 -53 70 -131 172 -172 227 -42 55 -79 102 -82 105 -3 3
-19 25 -34 50 -16 25 -43 61 -62 80 -18 19 -33 39 -33 43 0 8 -36 59 -72 102
-45 54 -56 68 -93 119 -22 31 -43 56 -47 56 -4 0 -8 5 -8 11 0 13 -48 78 -112
152 -46 53 -33 65 21 20z m5505 -619 c3 -9 6 -474 6 -1034 0 -802 -3 -1020
-12 -1027 -7 -6 -71 -12 -143 -15 -71 -2 -113 -3 -92 -1 20 3 37 8 37 14 0 5
39 9 86 9 61 0 90 4 100 14 12 12 14 162 14 1019 0 797 -3 1007 -13 1015 -7 6
-30 12 -52 15 -37 3 -36 4 11 5 39 2 53 -2 58 -14z m442 9 c-32 -2 -65 -10
-72 -18 -21 -21 -21 -2010 0 -2031 10 -10 39 -14 100 -14 47 0 86 -4 86 -9 0
-6 17 -11 38 -14 20 -2 -21 -1 -93 1 -71 3 -136 9 -142 15 -18 14 -19 2047 -1
2065 7 7 37 11 78 10 l65 -2 -59 -3z m2982 -762 c142 -70 266 -135 272 -141 3
-3 23 -14 45 -25 22 -11 75 -41 117 -67 43 -27 81 -48 84 -48 4 0 21 -10 38
-23 17 -13 74 -50 126 -82 52 -33 101 -65 107 -71 7 -7 29 -22 50 -35 21 -13
40 -26 43 -29 3 -4 12 -9 20 -13 25 -11 52 -30 92 -63 7 -5 47 -35 88 -64 41
-30 77 -57 80 -60 3 -3 21 -17 40 -30 41 -29 60 -44 109 -86 20 -17 47 -38 61
-47 18 -13 20 -17 8 -17 -10 0 -34 17 -55 38 -21 21 -45 41 -53 45 -28 13 -55
32 -77 55 -12 12 -29 22 -36 22 -8 0 -17 7 -21 15 -3 8 -11 15 -19 15 -7 0
-28 16 -47 35 -19 19 -39 35 -46 35 -7 0 -21 11 -32 25 -11 14 -25 25 -30 25
-6 0 -17 6 -24 13 -7 7 -30 21 -50 30 -21 10 -38 22 -38 27 0 6 -9 10 -19 10
-10 0 -21 7 -25 15 -3 8 -11 15 -19 15 -7 0 -24 11 -37 25 -13 14 -28 25 -33
25 -5 0 -17 8 -26 19 -9 10 -26 21 -38 25 -13 4 -23 12 -23 17 0 5 -7 9 -15 9
-8 0 -15 5 -15 11 0 6 -7 9 -15 5 -8 -3 -15 -2 -15 3 0 5 -8 12 -17 15 -30 10
-67 34 -78 49 -5 8 -21 18 -35 22 -14 4 -34 15 -45 25 -11 10 -32 22 -47 25
-16 4 -28 11 -28 16 0 5 -6 9 -14 9 -7 0 -19 7 -26 15 -7 8 -23 15 -36 15 -13
0 -24 3 -24 8 0 7 -30 25 -62 38 -10 3 -18 10 -18 15 0 5 -4 9 -10 9 -17 0
-90 34 -90 42 0 5 -4 8 -10 8 -17 0 -90 34 -90 42 0 5 -6 8 -14 8 -7 0 -19 7
-26 15 -19 23 -7 19 98 -34z m-6888 -221 c0 -5 -17 -17 -37 -27 -21 -9 -44
-23 -51 -30 -7 -7 -20 -13 -27 -13 -8 0 -17 -9 -20 -20 -7 -22 28 -71 134
-186 25 -28 71 -79 101 -114 30 -35 62 -71 70 -79 8 -9 33 -39 55 -66 22 -28
45 -55 50 -61 29 -32 126 -144 151 -174 16 -19 41 -48 56 -65 14 -16 36 -41
48 -55 78 -92 109 -127 143 -163 45 -48 67 -84 162 -272 65 -128 82 -162 106
-205 5 -8 15 -28 24 -45 8 -16 19 -38 25 -47 17 -30 29 -52 46 -85 8 -17 25
-33 35 -35 14 -2 -20 -28 -106 -80 -127 -79 -167 -94 -158 -60 3 15 -48 114
-127 242 -5 8 -21 38 -36 65 -14 28 -32 57 -40 66 -8 8 -14 23 -14 32 0 9 -4
17 -8 17 -5 0 -16 17 -25 38 -15 35 -36 71 -47 82 -3 3 -17 29 -32 58 -16 28
-40 76 -55 105 -16 28 -31 54 -35 57 -4 3 -11 17 -17 30 -6 14 -22 43 -35 65
-14 22 -31 51 -39 65 -7 14 -23 41 -34 60 -11 20 -40 71 -63 115 -24 44 -54
97 -67 117 -12 21 -23 40 -23 43 0 2 -15 28 -33 57 -18 29 -42 71 -52 93 -11
22 -22 42 -25 45 -3 3 -12 19 -20 35 -8 17 -21 36 -27 43 -7 7 -13 20 -13 28
0 8 -4 14 -10 14 -5 0 -10 7 -10 15 0 16 -49 97 -62 103 -5 2 -8 12 -8 22 0
10 -11 27 -25 38 -23 18 -24 22 -9 36 8 9 20 16 25 16 5 0 41 20 81 45 80 50
78 49 78 35z m-284 -272 c1 -62 6 -160 12 -218 7 -58 17 -154 23 -215 6 -60
15 -115 20 -121 6 -8 4 -14 -5 -17 -10 -4 -37 26 -87 96 -40 56 -78 107 -84
114 -30 35 -35 43 -35 53 0 5 -4 10 -8 10 -4 0 -15 12 -24 28 -9 15 -25 36
-35 47 -10 11 -31 38 -48 60 -16 22 -36 45 -44 51 -13 10 -7 17 33 40 26 16
98 64 159 107 61 42 113 77 117 77 3 0 5 -51 6 -112z m9357 -302 c-33 -33 -79
-81 -102 -106 -23 -25 -64 -68 -90 -95 -40 -41 -47 -54 -39 -69 20 -36 -45 10
-127 91 -105 101 -181 171 -227 207 -21 16 -38 33 -38 38 0 17 20 7 53 -27 19
-19 38 -35 44 -35 5 0 39 -31 76 -70 l67 -69 86 44 c48 25 93 45 100 45 7 0
14 4 16 8 2 5 39 26 83 47 44 21 87 44 95 51 19 16 54 22 59 11 2 -5 -24 -37
-56 -71z m-671 -209 c7 -7 38 -31 68 -54 30 -23 86 -70 123 -105 l69 -64 -44
-45 c-23 -26 -76 -80 -115 -122 -40 -42 -73 -78 -73 -80 0 -3 -52 -57 -116
-121 -107 -107 -117 -115 -137 -104 -29 16 -89 38 -105 38 -8 0 -28 6 -45 14
-18 8 -72 26 -120 42 -48 15 -90 31 -93 36 -3 4 -20 8 -38 8 -17 0 -36 4 -41
8 -6 5 -30 14 -55 21 -66 19 -94 39 -79 57 6 8 17 14 23 14 18 0 66 24 66 33
0 4 6 7 13 7 15 0 221 102 225 113 2 4 11 7 21 7 9 0 21 4 27 9 11 11 165 91
175 91 4 0 35 16 69 35 34 19 68 35 76 35 8 0 14 3 14 8 0 4 19 15 43 25 23
10 51 24 61 32 19 15 19 16 -9 45 -28 29 -30 44 -3 17z m-9793 -297 c13 0 38
-4 55 -9 34 -11 213 -49 286 -62 198 -35 265 -52 265 -69 0 -7 -41 -27 -95
-47 -52 -19 -113 -41 -135 -49 -22 -9 -51 -18 -65 -21 -14 -3 -29 -9 -35 -13
-5 -4 -53 -22 -105 -40 -52 -18 -99 -36 -104 -41 -22 -20 -45 -7 -70 37 -14
26 -26 53 -26 60 0 8 -3 14 -7 14 -5 0 -17 21 -27 48 -11 26 -29 63 -41 82
-11 19 -19 44 -17 55 4 25 73 77 87 64 5 -5 20 -9 34 -9z m4855 -196 c3 -9 6
-489 6 -1068 0 -827 -3 -1056 -12 -1068 -9 -11 -38 -18 -98 -22 -47 -3 -107
-10 -135 -15 -27 -5 -86 -14 -130 -21 -44 -6 -84 -15 -90 -19 -5 -5 -34 -11
-64 -14 -29 -4 -58 -10 -65 -15 -6 -6 -27 -12 -46 -15 -46 -7 -121 -26 -140
-36 -9 -5 -31 -12 -50 -16 -19 -4 -41 -11 -50 -15 -8 -4 -40 -15 -70 -25 -30
-9 -68 -23 -85 -30 -96 -43 -172 -79 -185 -90 -8 -7 -51 -32 -95 -55 -148 -79
-157 -82 -168 -71 -8 8 -8 11 0 11 7 0 17 27 24 59 l11 59 112 3 c100 4 114 6
136 27 14 12 35 25 47 28 13 4 23 9 23 13 0 12 60 32 80 26 11 -4 20 -2 20 4
0 6 7 11 15 11 8 0 15 4 15 10 0 5 23 12 50 16 28 4 50 10 50 15 0 5 7 9 16 9
8 0 12 5 9 10 -3 6 -10 31 -15 58 -5 26 -15 74 -23 106 -8 33 -13 65 -10 72 2
7 -5 19 -16 26 -12 7 -21 21 -21 31 0 25 30 34 45 14 7 -10 25 -17 41 -17 16
0 67 -14 114 -31 47 -17 99 -34 115 -39 17 -4 52 -17 78 -29 27 -11 56 -21 66
-21 9 0 26 -6 37 -14 34 -24 151 -41 182 -26 15 7 76 15 137 18 69 3 114 10
122 18 20 20 19 2080 -1 2100 -11 10 -43 14 -125 14 -61 0 -111 -4 -111 -9 0
-4 -59 -10 -130 -13 -80 -3 -135 -9 -142 -16 -7 -7 -44 -12 -92 -12 -43 0 -77
2 -75 5 7 7 236 35 374 46 66 6 131 14 145 19 14 5 57 9 96 9 57 1 73 -2 78
-15z m656 -7 c193 -21 383 -47 389 -52 2 -3 -32 -5 -77 -5 -44 0 -84 5 -87 10
-3 6 -17 7 -30 4 -12 -3 -26 -1 -29 5 -5 7 -48 11 -112 11 -63 0 -104 4 -104
10 0 17 -219 13 -236 -4 -21 -22 -21 -2080 0 -2102 10 -10 38 -14 90 -14 46 0
78 -4 82 -12 5 -8 -2 -9 -26 -5 -18 4 -56 7 -86 7 -92 0 -84 -107 -84 1089 0
832 3 1060 13 1070 14 14 74 12 297 -12z m1663 -241 c18 -7 48 -21 69 -30 20
-9 41 -16 47 -16 6 0 11 -3 11 -8 0 -8 73 -42 90 -42 6 0 10 -4 10 -9 0 -5 10
-12 23 -16 12 -4 24 -9 27 -10 3 -1 15 -6 28 -10 12 -4 22 -11 22 -15 0 -4 12
-11 27 -15 15 -3 34 -14 42 -24 9 -10 25 -21 36 -26 11 -4 22 -9 25 -10 3 -2
15 -6 28 -10 12 -4 22 -11 22 -16 0 -5 6 -9 14 -9 8 0 21 -6 28 -13 7 -7 30
-21 51 -30 20 -10 37 -22 37 -26 0 -5 10 -12 23 -16 12 -4 24 -8 27 -10 3 -1
14 -6 25 -10 11 -5 27 -17 36 -27 9 -10 21 -18 26 -18 5 0 20 -11 33 -25 13
-14 26 -23 28 -20 3 2 12 -4 21 -14 9 -10 26 -21 39 -25 12 -4 22 -12 22 -17
0 -5 5 -9 11 -9 6 0 17 -7 25 -15 9 -8 13 -15 9 -15 -8 0 -134 79 -175 110
-19 15 -55 38 -80 51 -24 13 -50 30 -58 37 -7 6 -20 12 -28 12 -8 0 -14 4 -14
9 0 5 -8 11 -17 15 -21 6 -51 25 -71 44 -7 6 -19 12 -27 12 -7 0 -15 3 -17 8
-4 9 -370 192 -385 192 -6 0 -13 3 -15 8 -3 7 -22 17 -108 56 -21 9 -28 16
-17 16 11 0 33 -6 50 -14z m-4613 -385 c0 -5 -5 -11 -12 -13 -10 -4 1 -32 43
-108 4 -8 23 -44 40 -80 18 -36 35 -67 38 -70 3 -3 16 -25 29 -49 29 -56 53
-102 63 -121 4 -8 27 -53 51 -100 23 -47 46 -86 50 -88 5 -2 8 -9 8 -15 0 -13
35 -84 67 -136 20 -31 131 -100 216 -132 15 -6 27 -15 27 -20 0 -5 6 -9 14 -9
13 0 30 -9 156 -79 30 -17 84 -45 120 -63 36 -18 67 -36 70 -39 3 -4 15 -9 28
-13 12 -4 22 -12 22 -17 0 -5 8 -9 18 -9 10 0 22 -4 28 -9 5 -5 53 -32 107
-60 124 -65 137 -73 137 -87 0 -16 -66 -54 -94 -54 -31 0 -39 -11 -18 -26 16
-12 13 -17 -30 -61 -84 -85 -128 -134 -128 -144 0 -5 -7 -9 -15 -9 -8 0 -15
-5 -15 -10 0 -6 -34 -45 -75 -87 -41 -43 -77 -85 -81 -95 -4 -13 -10 -15 -27
-9 -12 5 -58 19 -102 32 -44 12 -85 27 -91 31 -7 5 -35 11 -63 15 -28 3 -51 9
-51 13 0 4 -17 11 -37 15 -21 4 -51 14 -68 23 -16 9 -52 16 -80 17 l-50 0 2
35 c10 133 54 499 73 595 5 28 12 87 15 133 7 92 2 97 -49 59 -51 -39 -135
-97 -140 -97 -9 0 -161 -105 -164 -112 -2 -5 -10 -8 -17 -8 -7 0 -27 -12 -44
-26 -23 -19 -32 -22 -36 -12 -10 29 -27 106 -35 158 -11 73 -37 211 -55 285
-7 33 -16 78 -19 100 -5 35 -20 117 -41 220 -3 17 -10 55 -16 85 -6 30 -13 65
-15 78 -2 12 -12 22 -21 22 -22 0 37 53 84 75 20 10 61 32 92 51 55 33 91 43
91 25z m3935 -1461 c3 -11 4 -23 1 -28 -8 -14 11 -35 36 -38 12 -1 25 -3 28
-3 3 -1 -11 -9 -30 -20 -43 -23 -50 -52 -16 -70 24 -13 24 -14 7 -40 -15 -21
-17 -40 -14 -108 5 -77 7 -82 32 -93 39 -16 106 -54 109 -62 2 -5 10 -8 18 -8
8 0 14 -4 14 -10 0 -5 11 -12 25 -16 14 -3 25 -9 25 -13 0 -3 17 -15 38 -26
20 -11 43 -26 50 -32 7 -7 19 -13 26 -13 6 0 18 -9 26 -20 8 -11 20 -20 26
-20 7 0 21 -11 32 -25 11 -14 25 -25 32 -25 7 0 26 -13 42 -30 15 -16 34 -30
41 -30 7 0 21 -11 31 -25 10 -14 24 -25 30 -25 6 0 47 -36 91 -81 l80 -80 7
73 c13 131 20 167 34 179 12 10 14 0 14 -60 0 -41 -4 -71 -10 -71 -15 0 -13
-163 3 -179 10 -11 9 -12 -5 -5 -9 5 -54 45 -100 90 -81 78 -354 294 -374 294
-5 0 -27 16 -49 35 -22 20 -50 38 -62 41 -13 4 -23 10 -23 14 0 5 -10 12 -22
16 -13 3 -34 14 -48 24 -34 23 -123 69 -250 128 -137 64 -186 84 -300 122 -52
17 -104 35 -115 39 -11 5 -47 16 -80 26 -148 44 -193 65 -138 65 17 0 33 -4
35 -9 2 -4 14 -12 27 -16 l23 -7 -22 30 c-12 16 -20 40 -18 53 2 20 9 24 43
26 40 3 303 27 450 42 44 5 106 9 137 10 48 1 58 -2 63 -19z m-745 -44 c0 -15
-50 -56 -69 -56 -6 0 -11 -4 -11 -8 0 -12 -129 -3 -197 15 -35 9 -63 19 -63
23 0 4 59 10 130 13 72 4 138 11 148 16 26 15 62 13 62 -3z m-715 -108 c153
12 249 12 305 2 36 -6 91 -12 122 -14 38 -2 64 -9 77 -20 13 -12 45 -20 93
-25 l73 -7 -52 -7 c-41 -6 -58 -4 -85 11 -33 18 -68 19 -68 1 0 -5 -9 -9 -20
-9 -11 0 -20 -4 -20 -10 0 -5 -11 -12 -25 -16 -14 -3 -25 -9 -25 -13 0 -3 -26
-19 -58 -36 -31 -16 -59 -33 -62 -36 -3 -3 -88 -54 -190 -113 -102 -60 -213
-126 -247 -147 -34 -22 -65 -39 -68 -39 -3 0 -31 -16 -62 -36 -44 -28 -58 -33
-64 -22 -5 7 -6 20 -2 28 3 8 9 35 14 60 15 86 50 233 59 251 6 10 10 38 10
63 0 25 5 48 10 51 6 3 10 18 10 32 0 23 -3 25 -37 20 -125 -19 -178 -29 -263
-53 -52 -14 -117 -29 -143 -34 -27 -5 -54 -13 -60 -18 -13 -10 -76 -25 -114
-28 -12 0 -28 -6 -35 -11 -20 -16 -91 -25 -117 -15 -22 8 -19 10 30 29 93 35
153 53 176 53 12 0 24 4 27 9 4 5 25 12 49 16 23 3 51 10 62 15 22 9 137 29
235 41 36 4 76 10 90 14 42 10 273 23 310 17 19 -3 49 -5 65 -4z m909 -124
c28 -9 59 -21 68 -25 10 -5 25 -9 34 -9 9 0 30 -6 47 -14 18 -8 57 -23 87 -34
53 -19 209 -89 260 -116 86 -45 361 -218 388 -243 7 -7 17 -13 21 -13 4 0 16
-8 27 -17 10 -10 46 -38 79 -63 132 -98 355 -307 355 -333 0 -9 -2 -9 -9 1
-11 18 -21 -17 -21 -73 0 -63 -20 -247 -31 -281 -9 -31 -15 -221 -7 -229 7 -7
292 -44 393 -51 49 -3 105 -10 123 -14 19 -5 30 -5 27 1 -4 5 -2 9 3 9 12 0
36 -28 54 -65 130 -254 172 -341 194 -400 26 -70 46 -124 69 -180 7 -16 18
-57 24 -90 7 -33 19 -75 27 -93 8 -18 14 -47 14 -65 0 -18 4 -37 9 -43 6 -5
17 -56 26 -114 9 -58 21 -125 26 -150 12 -51 27 -217 35 -395 l6 -120 -31 -18
c-35 -20 -40 -37 -12 -37 36 0 44 -25 37 -113 -4 -45 -11 -137 -15 -204 -9
-122 -18 -164 -31 -129 -5 16 -7 16 -28 -1 -12 -10 -33 -26 -47 -36 -28 -20
-32 -39 -10 -57 8 -7 15 -20 15 -30 0 -9 9 -25 20 -35 20 -18 20 -17 20 26 0
25 4 49 9 54 5 6 11 19 14 30 10 35 1 -97 -13 -185 -6 -47 -16 -93 -21 -103
-6 -10 -14 -37 -19 -60 -23 -108 -82 -302 -109 -355 -5 -9 -14 -35 -21 -57 -7
-22 -23 -65 -37 -95 -38 -84 -84 -183 -96 -205 -39 -73 -87 -176 -87 -189 0
-8 -4 -17 -9 -21 -6 -3 -20 -26 -32 -50 -12 -25 -26 -45 -31 -45 -4 0 -8 -4
-8 -10 0 -12 -56 -92 -117 -168 -24 -30 -43 -57 -43 -61 0 -4 -8 -16 -17 -27
-10 -10 -44 -51 -76 -90 -65 -81 -293 -313 -381 -389 -32 -27 -73 -63 -90 -78
-17 -16 -49 -40 -71 -55 -22 -15 -42 -29 -45 -32 -17 -17 -80 -60 -89 -60 -6
0 -11 -3 -11 -8 0 -8 -68 -50 -165 -102 -33 -18 -69 -40 -80 -50 -25 -23 -96
-60 -160 -84 -27 -11 -52 -22 -55 -25 -7 -9 -103 -48 -200 -82 -47 -17 -97
-37 -112 -45 -14 -8 -37 -14 -50 -14 -14 0 -28 -3 -32 -7 -8 -8 -91 -31 -141
-39 -16 -3 -52 -11 -80 -19 -161 -45 -210 -52 -478 -61 -152 -5 -170 -4 -188
12 -18 16 -20 16 -40 -2 -46 -41 -420 -14 -654 47 -22 6 -58 13 -80 16 -22 3
-49 12 -60 19 -11 8 -30 14 -42 14 -13 0 -31 4 -41 9 -9 4 -42 16 -72 25 -98
31 -203 73 -300 122 -106 52 -110 55 -93 61 12 4 2 28 -50 110 -13 21 -27 48
-31 61 -4 12 -11 22 -16 22 -5 0 -12 9 -15 21 -4 11 -20 33 -36 50 -16 16 -29
38 -29 49 0 10 -3 20 -7 22 -11 4 -63 75 -63 84 0 4 -11 22 -25 40 -14 18 -25
37 -25 42 0 5 -9 17 -20 27 -11 10 -20 24 -20 31 0 7 -6 19 -12 26 -7 8 -26
38 -42 68 -16 30 -33 57 -36 60 -11 8 -89 132 -102 163 -7 15 -16 27 -20 27
-4 0 -8 11 -8 24 0 13 -8 37 -17 54 -11 18 -14 35 -8 48 4 10 7 35 6 54 -1 19
-3 137 -4 261 -3 206 -5 230 -24 270 -11 24 -29 71 -38 104 -9 33 -32 106 -51
162 -19 57 -34 110 -34 118 0 8 -4 23 -9 33 -5 9 -22 59 -38 111 -16 52 -36
98 -44 102 -14 6 -41 15 -129 38 -25 7 -67 19 -95 26 -27 8 -68 18 -90 24 -22
5 -65 17 -95 25 -30 8 -77 20 -105 27 -27 6 -59 15 -70 19 -52 23 -103 22
-157 -3 -179 -83 -214 -100 -218 -108 -10 -15 -31 7 -36 37 -3 16 -8 76 -12
134 -4 58 -11 111 -16 118 -4 7 -12 72 -17 145 -5 72 -12 167 -16 209 -6 83 3
108 38 108 30 0 22 24 -12 39 -30 13 -31 14 -26 80 9 134 29 327 37 356 6 21
8 0 9 -73 l1 -103 38 6 c20 4 46 10 57 15 11 5 61 21 110 36 50 15 94 31 100
36 5 4 23 8 40 8 17 0 39 6 50 14 11 7 38 16 60 20 22 5 51 14 65 21 14 7 53
19 88 26 35 7 73 19 84 28 21 17 37 78 38 144 0 30 4 37 20 37 16 0 20 7 20
34 0 19 6 47 14 63 28 57 50 143 39 154 -8 8 -17 -10 -33 -60 -22 -68 -50 -97
-50 -50 0 12 -7 35 -15 52 -8 18 -15 48 -17 67 -4 43 -32 53 -49 17 -9 -21 -7
-28 15 -50 33 -33 37 -87 6 -87 -14 0 -20 -7 -20 -23 0 -13 -3 -27 -7 -30 -11
-12 -33 15 -33 42 0 14 -7 35 -15 45 -16 21 -21 71 -6 62 4 -3 11 -19 14 -36
9 -44 37 -40 37 5 0 24 -5 35 -15 35 -9 0 -15 9 -15 25 0 14 -2 25 -4 25 -2 0
-11 3 -20 6 -12 5 -16 -1 -16 -22 l-1 -29 -18 34 c-10 18 -16 44 -13 57 3 17
0 24 -12 24 -10 0 -16 9 -16 24 0 14 -5 28 -11 32 -17 10 -45 84 -53 137 -4
26 -11 47 -17 47 -5 0 -9 13 -9 29 0 16 -7 42 -15 57 -8 16 -15 38 -15 49 0
11 -9 44 -20 73 -11 29 -20 62 -20 73 0 18 -2 19 -15 9 -12 -10 -15 -10 -15 3
0 16 29 86 40 97 3 3 15 25 27 50 13 25 32 56 43 70 16 20 20 22 20 8 0 -16
10 -18 73 -18 101 0 494 -28 539 -39 27 -6 42 -5 57 5 13 9 22 11 26 4 8 -14
58 -13 73 2 8 8 16 5 30 -13 17 -20 22 -22 37 -9 14 12 18 12 25 -1 8 -12 12
-11 27 4 16 15 16 19 3 27 -28 17 -57 41 -102 83 -63 58 -106 96 -158 137 -24
19 -58 49 -76 65 -50 46 -84 75 -89 75 -3 0 -28 22 -57 50 -29 27 -59 50 -65
50 -7 0 -13 4 -13 10 0 5 -7 7 -15 4 -8 -4 -15 -2 -15 4 0 17 42 65 185 210
128 129 174 166 159 128 -3 -8 9 -54 26 -103 17 -48 40 -115 51 -148 11 -33
24 -69 29 -80 4 -11 20 -56 35 -100 14 -44 30 -88 35 -97 6 -10 10 -26 10 -37
0 -11 6 -32 14 -48 17 -34 32 -79 53 -153 18 -64 52 -100 140 -145 32 -16 60
-33 63 -36 8 -9 300 -179 309 -179 4 0 18 -12 32 -26 27 -29 25 -9 38 -374 5
-140 12 -263 16 -272 7 -18 18 -24 115 -72 30 -15 62 -31 70 -37 8 -5 31 -17
50 -27 19 -9 41 -23 49 -30 7 -7 26 -16 42 -19 16 -3 34 -12 40 -19 6 -8 20
-14 30 -14 11 0 19 -4 19 -9 0 -5 10 -13 22 -17 12 -3 31 -15 42 -25 11 -11
29 -19 40 -19 11 0 27 -6 35 -14 9 -7 50 -31 91 -52 41 -21 77 -42 78 -46 2
-4 12 -8 23 -8 28 0 118 -68 123 -93 3 -12 7 -58 11 -102 3 -44 10 -123 15
-175 6 -52 14 -148 20 -213 5 -66 15 -154 21 -198 7 -43 9 -82 6 -86 -12 -11
-57 16 -67 41 -9 24 -18 38 -72 101 -16 18 -28 37 -28 43 0 6 -3 12 -7 14 -9
3 -47 50 -78 94 -11 16 -61 83 -110 149 -50 66 -105 141 -123 167 -18 25 -38
52 -45 60 -7 7 -42 54 -77 103 -35 50 -72 99 -82 109 -10 11 -20 28 -24 38 -3
10 -9 18 -14 18 -5 0 -16 12 -24 28 -8 15 -30 43 -48 63 -19 21 -44 58 -57 83
-27 51 -59 67 -39 19 7 -16 15 -32 20 -37 4 -6 8 -21 8 -33 0 -13 11 -35 24
-48 13 -13 20 -25 15 -27 -10 -3 41 -161 54 -166 4 -2 7 -19 7 -37 0 -19 4
-36 9 -39 4 -3 17 -35 27 -71 10 -36 22 -65 26 -65 5 0 8 -11 8 -25 0 -14 10
-44 21 -67 12 -23 29 -69 39 -102 20 -68 37 -117 56 -161 7 -16 23 -64 35
-105 12 -41 25 -79 29 -85 4 -5 15 -35 25 -65 10 -30 24 -68 30 -85 7 -16 16
-46 20 -65 4 -19 13 -45 21 -57 8 -12 14 -31 14 -42 0 -11 4 -22 9 -26 5 -3
12 -19 16 -36 4 -17 13 -42 21 -57 17 -34 18 -78 2 -89 -13 -8 -201 -46 -308
-62 -30 -5 -113 -21 -185 -36 -71 -15 -155 -31 -187 -35 -73 -10 -80 -15 -66
-45 6 -14 14 -25 18 -25 3 0 19 -22 35 -50 16 -27 32 -50 35 -50 3 0 14 -16
24 -35 11 -19 23 -35 28 -35 4 0 8 -6 8 -14 0 -8 3 -16 8 -18 4 -1 25 -30 47
-62 22 -33 44 -64 50 -71 10 -11 15 -18 61 -95 15 -25 38 -56 51 -70 13 -14
23 -30 23 -36 0 -5 8 -19 18 -30 9 -11 37 -50 62 -86 25 -37 49 -68 54 -68 8
0 78 -67 413 -398 102 -101 188 -181 190 -178 3 2 0 19 -5 38 -14 44 -29 108
-48 193 -9 39 -20 74 -25 80 -5 5 -9 25 -9 45 0 20 -4 40 -10 46 -5 5 -12 32
-16 59 -3 28 -9 59 -14 70 -8 18 -51 183 -85 325 -7 30 -23 91 -35 135 -11 44
-25 98 -29 120 -5 22 -13 53 -20 68 -6 16 -11 43 -11 61 0 17 -4 36 -8 41 -5
6 -14 37 -21 70 -7 33 -17 68 -22 78 -6 11 -6 24 0 35 8 14 26 -1 113 -92 56
-60 175 -182 263 -271 88 -90 227 -233 309 -319 82 -86 155 -156 163 -156 8 0
29 -6 46 -14 18 -7 75 -28 127 -45 52 -18 124 -42 160 -54 36 -12 67 -25 68
-29 2 -5 13 -8 25 -8 20 0 91 -24 162 -55 17 -7 41 -16 55 -18 22 -4 103 -32
165 -56 37 -15 90 -33 110 -38 23 -5 45 -14 98 -37 21 -9 43 -14 48 -11 14 9
11 31 -6 45 -8 7 -15 18 -15 26 0 7 -13 32 -29 56 -15 24 -31 55 -35 71 -3 15
-11 27 -16 27 -6 0 -10 9 -10 19 0 11 -3 21 -7 23 -5 2 -28 44 -53 93 -25 50
-51 96 -57 103 -7 7 -13 20 -13 27 0 8 -13 36 -30 62 -16 26 -30 52 -30 59 0
6 -7 17 -15 24 -8 7 -17 27 -21 46 -3 19 -10 34 -14 34 -5 0 -18 21 -31 48
-12 26 -25 49 -28 52 -3 3 -14 21 -23 40 -10 19 -22 43 -28 53 -17 29 -27 49
-72 137 -45 91 -89 165 -126 218 -22 31 -22 32 -4 32 11 0 22 -7 26 -15 7 -19
46 -20 46 -1 0 8 -10 16 -22 18 -13 2 -24 11 -27 23 -4 23 -29 44 -53 45 -21
0 -25 30 -4 30 8 0 16 -7 20 -15 3 -8 12 -15 20 -15 7 0 16 -7 20 -15 7 -18
46 -20 47 -2 1 6 0 23 0 37 -1 16 8 35 23 50 19 17 26 34 26 62 0 22 5 38 11
38 19 0 38 33 39 66 0 46 62 160 81 149 9 -6 31 29 27 42 -2 4 3 23 11 40 15
36 7 87 -12 80 -11 -4 -42 9 -87 34 -8 5 -22 12 -30 15 -8 4 -52 24 -98 46
-90 43 -185 78 -212 78 -9 0 -34 15 -56 33 -21 18 -59 41 -84 51 -25 10 -47
21 -50 24 -10 14 -50 32 -71 32 -25 0 -54 15 -80 41 -10 10 -27 19 -36 19 -28
0 -163 70 -163 85 0 23 -21 29 -38 11 -16 -16 -15 -18 8 -36 19 -14 22 -22 13
-30 -8 -9 -13 -7 -18 8 -3 12 -14 24 -25 27 -10 3 -21 12 -24 20 -6 17 -78 55
-104 55 -10 0 -27 9 -38 20 -10 12 -27 28 -36 38 -24 22 -23 59 2 72 11 6 20
17 20 25 0 8 9 20 20 27 11 7 20 23 20 34 0 18 4 21 21 17 19 -5 20 -4 10 15
-10 19 -6 51 9 62 3 3 17 27 29 53 13 27 30 51 37 54 8 3 14 13 14 22 0 9 4
21 10 27 5 5 27 43 49 85 21 41 43 84 49 95 5 10 34 93 62 184 29 91 56 174
61 185 5 11 20 56 34 100 14 44 30 88 35 97 6 10 10 28 10 41 0 13 7 32 15 43
8 10 15 30 15 45 0 14 4 29 9 35 4 5 21 47 36 94 15 47 31 94 36 105 4 11 11
31 14 45 4 14 14 48 24 75 10 28 26 75 35 105 10 30 22 64 26 75 5 11 21 59
36 108 14 48 30 90 35 93 5 3 9 16 9 29 0 22 16 68 41 117 5 10 9 24 9 32 0
32 31 24 77 -19 27 -25 58 -48 71 -51 12 -3 22 -11 22 -18 0 -6 17 -22 37 -36
19 -14 46 -34 58 -45 12 -11 29 -24 38 -30 20 -14 207 -168 234 -194 12 -12
25 -21 29 -21 3 0 29 -21 58 -46 28 -26 61 -51 74 -57 12 -6 22 -15 22 -21 0
-7 15 -20 33 -31 47 -27 88 -72 81 -90 -3 -8 -9 -15 -14 -15 -4 0 -136 -129
-295 -287 -191 -191 -282 -289 -271 -291 16 -4 76 16 151 48 22 9 64 25 93 35
28 11 52 23 52 27 0 4 8 8 18 8 10 0 55 16 101 35 45 19 91 35 101 35 9 0 23
7 30 15 7 8 21 15 31 15 11 0 27 4 37 10 44 25 127 60 142 60 9 0 20 4 25 8 6
5 33 17 60 27 28 10 68 26 90 36 57 26 242 98 295 116 25 8 61 23 81 34 20 10
44 19 52 19 26 0 67 22 67 37 0 7 -12 14 -27 15 -50 3 -78 6 -83 8 -3 1 -63 3
-135 5 -468 14 -573 18 -582 24 -12 8 -34 144 -24 151 12 7 19 70 10 76 -5 3
-12 -13 -15 -36 -8 -48 -26 -48 -36 1 -19 94 -26 120 -35 131 -6 7 -16 30 -22
51 -7 20 -16 37 -20 37 -5 0 -11 18 -15 40 -3 23 -10 49 -15 58 -18 34 -61
184 -61 212 0 18 -8 34 -21 43 -13 10 -23 30 -26 56 -3 22 -14 48 -24 57 -11
10 -19 31 -19 48 0 17 -7 40 -15 50 -8 11 -15 32 -15 46 0 15 -3 29 -6 33 -4
3 -16 34 -29 69 -51 145 -58 164 -70 193 -7 17 -18 44 -24 61 -7 18 -23 35
-39 41 l-27 11 29 1 c15 1 51 -6 80 -15z m-7739 -95 c28 -7 91 -15 140 -19 50
-4 122 -12 160 -18 69 -11 343 -47 420 -56 22 -2 96 -12 165 -21 69 -9 161
-20 205 -25 100 -11 183 -25 260 -46 33 -8 80 -19 105 -24 25 -5 86 -20 135
-35 50 -14 108 -28 130 -32 22 -3 49 -12 60 -19 11 -8 41 -14 67 -14 26 0 49
-4 52 -9 6 -9 -63 -41 -89 -41 -9 0 -23 -4 -33 -9 -9 -5 -51 -19 -92 -31 -41
-12 -93 -29 -115 -36 -23 -8 -50 -14 -60 -14 -11 0 -33 -7 -49 -15 -15 -8 -36
-15 -46 -15 -10 0 -38 -8 -62 -19 -24 -10 -64 -21 -90 -25 -27 -4 -48 -11 -48
-17 0 -5 -15 -9 -33 -9 -18 0 -37 -4 -42 -9 -10 -10 -137 -49 -188 -58 -15 -3
-30 -9 -33 -14 -13 -22 -54 -6 -174 65 -25 15 -57 31 -72 37 -16 6 -28 15 -28
20 0 5 -11 9 -24 9 -14 0 -27 4 -31 9 -3 5 -33 24 -68 41 -34 17 -78 41 -97
52 -44 27 -142 79 -242 130 -43 21 -80 43 -83 48 -4 6 -16 10 -29 10 -13 0
-31 9 -40 19 -10 11 -28 22 -42 25 -13 4 -24 11 -24 16 0 6 -9 10 -19 10 -11
0 -23 5 -26 10 -10 15 -35 12 -35 -5 0 -8 -4 -15 -10 -15 -5 0 -11 -12 -11
-27 -1 -18 -3 -22 -6 -10 -5 18 15 87 45 157 19 46 34 64 41 51 4 -5 29 -15
56 -22z m5755 22 c0 -5 -8 -12 -17 -14 -10 -3 -1 -5 20 -6 44 -1 47 -15 14
-69 -13 -20 -31 -54 -40 -74 -10 -20 -22 -40 -27 -43 -6 -3 -10 -15 -10 -26 0
-10 -3 -19 -8 -19 -4 0 -12 -9 -17 -20 -28 -57 -80 -156 -85 -160 -5 -5 -9
-12 -56 -100 -16 -30 -31 -57 -34 -60 -3 -3 -15 -25 -28 -50 -12 -25 -40 -76
-62 -115 -21 -38 -47 -86 -56 -105 -10 -19 -20 -37 -23 -40 -4 -3 -22 -36 -42
-75 -62 -118 -74 -140 -79 -145 -3 -3 -18 -30 -34 -60 -81 -154 -100 -187
-123 -210 l-25 -25 6 35 c11 57 40 274 66 495 5 39 16 126 25 195 9 69 20 161
25 205 4 44 12 104 16 133 5 36 3 52 -5 52 -6 0 -11 -4 -11 -10 0 -5 -5 -10
-12 -10 -6 0 -20 -7 -30 -17 -10 -9 -21 -14 -24 -10 -3 3 7 14 23 24 15 10 42
31 60 47 18 15 43 34 57 41 44 23 91 50 96 55 26 26 243 129 340 160 99 33
100 33 100 21z m4971 -317 c15 -14 42 -38 59 -55 17 -16 35 -29 38 -29 4 0 25
-19 48 -43 22 -23 63 -60 90 -82 27 -22 78 -68 112 -102 35 -35 67 -63 71 -63
9 0 96 -79 91 -82 -38 -24 -53 -29 -63 -19 -8 8 -6 11 5 11 17 0 31 24 21 34
-4 3 -19 6 -34 6 -19 0 -34 9 -49 30 -30 42 -53 53 -84 38 -38 -17 -34 -55 9
-96 20 -17 38 -32 41 -32 8 0 34 -27 34 -36 0 -3 -6 -2 -13 4 -7 6 -32 14 -55
18 -23 4 -42 10 -42 15 0 5 -14 9 -30 9 -16 0 -29 -3 -27 -7 2 -8 -6 -13 -23
-13 -21 0 -9 28 15 34 18 5 25 13 25 30 0 14 -6 26 -12 29 -17 5 8 37 28 37
25 0 58 41 47 58 -15 25 -45 39 -50 25 -6 -15 -39 -17 -48 -3 -3 6 3 10 14 10
12 0 21 6 21 13 -1 14 -35 57 -45 57 -8 0 -37 25 -94 81 -20 19 -44 38 -54 42
-9 3 -17 16 -17 27 0 11 -7 20 -15 20 -18 0 -20 -31 -3 -48 13 -13 18 -67 19
-192 0 -41 6 -111 14 -155 7 -44 16 -129 20 -190 4 -60 11 -135 17 -165 6 -30
14 -122 18 -205 5 -82 14 -184 20 -225 6 -41 13 -122 15 -180 2 -103 14 -212
35 -340 6 -36 14 -91 19 -123 4 -32 12 -62 18 -65 11 -7 206 -194 566 -544 88
-86 172 -163 187 -170 14 -7 31 -21 38 -30 11 -15 62 -26 62 -14 0 17 -15 36
-29 36 -9 0 -26 15 -38 33 -21 31 -30 57 -18 57 5 0 53 -39 67 -55 31 -35 48
-59 48 -66 0 -13 341 -11 356 2 17 14 20 199 4 215 -5 5 -12 77 -15 159 -5
170 6 159 26 -25 20 -177 23 -361 7 -371 -7 -5 -113 -9 -235 -9 -151 0 -223
-3 -223 -11 0 -15 -1536 -1 -1570 15 -23 10 -25 17 -31 106 -4 52 -12 113 -18
135 -6 22 -11 59 -11 81 0 23 -6 72 -14 110 -8 38 -19 101 -26 139 -6 39 -19
99 -30 135 -10 36 -26 94 -36 130 -10 36 -20 70 -24 75 -4 6 -14 39 -24 75
-16 60 -34 108 -57 152 -5 10 -9 22 -9 28 0 6 -18 47 -40 91 -22 45 -40 88
-40 95 0 16 -74 170 -92 191 -15 19 5 41 24 26 17 -14 141 -33 216 -33 56 0
60 2 70 28 5 15 15 61 22 102 6 41 15 98 21 125 14 72 31 174 35 215 3 19 11
69 19 110 26 132 47 253 54 317 7 71 15 80 91 112 30 13 67 30 82 37 14 8 35
14 46 14 11 0 22 3 24 8 2 4 35 20 73 36 39 15 85 35 103 43 71 31 97 42 101
43 2 0 17 -12 32 -26z m-6073 -79 c7 -14 12 -31 12 -38 0 -7 7 -23 16 -35 l15
-22 27 25 c15 14 30 25 33 25 7 0 11 4 -246 -260 -99 -102 -194 -202 -212
-223 -18 -21 -35 -32 -38 -26 -4 5 10 26 30 45 l38 35 -24 17 c-31 21 -143
124 -147 134 -2 4 -12 8 -23 8 -13 0 -19 7 -19 21 0 26 13 38 75 70 28 14 68
36 90 49 79 45 210 121 225 130 8 6 31 18 50 28 19 9 41 23 48 30 21 19 38 14
50 -13z m-2773 -152 c-23 -49 -53 -110 -64 -138 -12 -27 -27 -61 -33 -75 -12
-28 -29 -68 -51 -120 -29 -67 -99 -256 -119 -320 -12 -36 -27 -79 -34 -97 -8
-17 -14 -36 -14 -42 0 -6 -4 -19 -9 -29 -5 -9 -17 -43 -27 -74 -19 -61 -34
-75 -34 -33 0 14 5 25 10 25 6 0 10 7 10 15 0 8 4 15 9 15 5 0 7 8 4 19 -3 10
0 22 6 25 6 4 11 24 11 44 0 20 7 46 15 56 8 11 15 35 15 53 0 18 4 33 9 33 5
0 12 12 15 28 10 39 30 82 38 82 5 0 8 9 8 20 0 11 4 20 8 20 5 0 7 14 4 30
-2 17 0 30 4 30 11 0 30 43 39 88 4 17 11 32 16 32 5 0 9 7 9 15 0 8 5 15 10
15 6 0 10 7 10 15 0 8 5 15 10 15 6 0 8 11 4 25 -4 15 -2 25 5 25 6 0 11 11
11 25 0 14 4 25 10 25 5 0 12 16 16 35 3 19 10 35 15 35 5 0 9 7 9 15 0 8 5
15 11 15 5 0 8 4 4 10 -5 8 12 48 26 60 4 3 10 16 14 30 7 24 22 40 37 40 4 0
-13 -39 -37 -87z m225 28 c0 -11 3 -21 8 -23 4 -1 32 -36 61 -75 30 -40 58
-73 62 -73 4 0 10 -8 13 -17 3 -10 19 -32 36 -50 16 -18 30 -35 30 -38 0 -3 4
-11 10 -18 5 -7 40 -50 77 -97 36 -47 70 -86 75 -88 4 -2 8 -8 8 -13 0 -10 2
-13 50 -69 55 -63 55 -63 0 -122 -27 -29 -50 -56 -50 -60 0 -5 -8 -16 -17 -26
-10 -10 -27 -31 -38 -46 -11 -16 -30 -38 -42 -49 -13 -11 -23 -24 -23 -29 0
-5 -12 -21 -26 -36 -14 -15 -37 -44 -50 -64 -13 -21 -28 -38 -32 -38 -4 0 -16
-14 -26 -32 -22 -36 -39 -58 -77 -99 -15 -15 -40 -45 -55 -66 -16 -21 -31 -40
-34 -43 -3 -3 -30 -35 -59 -72 -30 -38 -58 -68 -63 -68 -4 0 -8 -6 -8 -13 0
-8 -11 -27 -25 -43 -14 -16 -25 -32 -25 -36 0 -12 -28 -9 -35 2 -4 6 -2 16 3
23 6 7 12 53 14 102 3 50 12 182 22 295 9 113 23 288 31 390 14 171 19 358 8
318 -2 -10 -8 -18 -13 -18 -4 0 -11 -16 -14 -35 -4 -19 -11 -35 -16 -35 -6 0
-10 -16 -10 -35 0 -19 -4 -35 -10 -35 -5 0 -13 -18 -16 -40 -4 -22 -10 -40
-15 -40 -5 0 -9 -7 -9 -15 0 -8 -5 -15 -11 -15 -6 0 -9 -6 -6 -14 6 -16 -13
-66 -25 -66 -5 0 -8 -11 -8 -25 0 -14 -4 -25 -10 -25 -5 0 -7 -13 -4 -29 6
-29 -14 -91 -28 -91 -5 0 -8 -12 -8 -27 0 -16 -7 -41 -15 -57 -8 -15 -15 -44
-15 -62 0 -19 -4 -34 -10 -34 -5 0 -10 -7 -10 -15 0 -8 -4 -15 -9 -15 -6 0 -7
-16 -4 -35 4 -23 2 -35 -6 -35 -6 0 -11 -18 -11 -45 0 -25 -4 -45 -10 -45 -5
0 -10 -7 -10 -17 0 -9 -3 -14 -6 -11 -3 3 0 30 6 59 6 30 15 72 19 94 15 71
107 377 135 445 7 19 22 55 31 80 10 25 23 59 30 75 7 17 19 48 26 70 7 22 16
45 20 50 4 6 28 62 54 125 26 63 55 131 65 150 10 19 31 63 47 97 27 61 53 82
53 44z m11835 -71 c4 -17 10 -30 15 -30 7 0 30 -75 30 -99 0 -6 -9 -11 -19
-11 -11 0 -26 -6 -33 -12 -7 -7 -25 -19 -39 -26 -15 -8 -38 -25 -52 -38 -14
-13 -33 -24 -41 -24 -8 0 -19 -6 -23 -13 -4 -7 -29 -23 -54 -37 -26 -14 -86
-51 -133 -82 -48 -32 -91 -58 -96 -58 -5 0 -15 -6 -22 -13 -13 -13 -96 -72
-130 -92 -9 -5 -39 -23 -67 -39 -28 -16 -51 -33 -51 -38 0 -4 -6 -8 -13 -8 -8
0 -25 -9 -38 -21 -13 -12 -41 -30 -61 -40 -21 -11 -38 -24 -38 -29 0 -6 -8
-10 -19 -10 -10 0 -24 -7 -31 -15 -7 -8 -18 -15 -25 -15 -8 0 -15 -3 -17 -7
-4 -10 -74 -63 -82 -63 -3 0 -35 -20 -70 -44 -36 -24 -74 -47 -85 -51 -12 -3
-21 -11 -21 -16 0 -5 -7 -9 -15 -9 -8 0 -15 -4 -15 -10 0 -5 -9 -10 -19 -10
-11 0 -28 -11 -39 -25 -11 -14 -27 -25 -35 -25 -9 0 -20 -6 -24 -13 -4 -8 -28
-24 -53 -38 -25 -13 -51 -30 -58 -36 -7 -7 -19 -13 -27 -13 -7 0 -15 -4 -17
-8 -3 -8 -144 -102 -153 -102 -10 0 -5 38 15 111 11 41 20 88 20 105 0 17 7
48 15 67 8 20 15 56 15 80 0 24 3 47 8 51 4 4 12 38 19 74 6 37 18 98 27 137
9 38 16 84 16 100 0 36 16 55 45 55 11 0 33 7 49 15 15 8 39 15 53 15 13 0 33
5 44 11 11 6 41 14 67 19 26 5 63 13 82 19 19 5 73 20 120 32 47 12 92 24 100
27 24 9 121 32 173 42 26 5 62 16 79 24 17 9 44 16 60 16 16 0 39 5 51 12 12
6 42 15 67 19 62 11 191 46 212 59 10 5 33 10 52 10 19 0 37 4 40 9 3 4 25 11
48 15 24 4 57 11 73 16 17 6 49 15 73 20 32 8 42 16 42 30 0 11 -4 20 -10 20
-5 0 -10 12 -10 26 0 33 17 22 25 -16z m-13569 -426 c55 -58 133 -140 174
-184 41 -43 122 -129 180 -192 58 -62 140 -149 182 -193 156 -162 218 -230
218 -241 0 -11 -89 -44 -121 -44 -10 0 -21 -4 -24 -10 -3 -5 -22 -10 -41 -10
-19 0 -34 -4 -34 -10 0 -5 -7 -10 -15 -10 -8 0 -15 -4 -15 -10 0 -5 -12 -10
-27 -10 -16 0 -48 -6 -73 -14 -25 -8 -79 -24 -120 -36 -41 -12 -90 -28 -108
-36 -18 -8 -40 -14 -50 -14 -9 0 -46 -11 -82 -24 -36 -13 -90 -29 -120 -36
-30 -7 -59 -16 -65 -20 -5 -5 -28 -11 -50 -15 -42 -8 -80 -24 -57 -25 6 0 12
-4 12 -10 0 -16 -76 -12 -90 5 -10 12 -10 25 -2 58 6 23 18 85 27 137 9 52 20
118 25 145 18 105 31 182 40 240 25 162 50 303 59 335 6 19 11 58 11 87 0 28
4 54 9 57 4 3 12 34 15 68 11 94 17 118 31 118 7 0 57 -47 111 -106z m10824
-144 c0 -21 -36 -97 -51 -106 -5 -3 -9 -14 -9 -25 0 -10 -9 -24 -20 -31 -11
-7 -20 -20 -20 -28 0 -8 -11 -27 -24 -41 -13 -14 -31 -40 -40 -57 -9 -18 -21
-32 -26 -32 -6 0 -10 -9 -10 -19 0 -11 -8 -22 -18 -25 -10 -3 -23 -18 -30 -33
-21 -50 -54 -103 -63 -103 -15 0 -10 37 7 50 11 10 14 23 8 53 -6 38 -5 40 16
34 30 -8 50 1 50 23 0 10 7 20 15 24 8 3 15 13 15 23 0 10 11 27 25 37 14 10
25 26 25 36 0 9 11 27 24 40 14 12 28 35 31 50 3 16 13 31 21 34 8 3 14 12 14
20 0 7 7 16 14 19 11 4 13 16 9 41 -5 32 -3 36 16 36 14 0 21 -6 21 -20z m796
-427 c8 -29 21 -79 30 -110 9 -32 20 -71 24 -88 5 -16 16 -70 25 -120 9 -49
25 -124 35 -165 17 -71 36 -232 23 -200 -3 8 -11 18 -16 22 -6 3 -9 37 -8 74
1 45 -2 70 -10 75 -7 4 -15 35 -17 68 -2 34 -7 61 -11 61 -13 0 -29 57 -34
114 -2 33 -9 62 -15 64 -7 2 -12 25 -12 53 0 27 -5 49 -10 49 -7 0 -8 13 -4
35 4 23 2 35 -5 35 -6 0 -11 7 -11 15 0 8 -4 15 -9 15 -14 0 -19 34 -8 60 6
18 11 21 14 10 2 -8 11 -39 19 -67z m-8566 -59 c-6 -27 -11 -67 -12 -89 0 -22
-7 -85 -15 -140 -7 -55 -18 -155 -23 -222 -4 -67 -11 -127 -15 -133 -3 -6 -10
-54 -15 -108 -27 -287 -70 -622 -80 -622 -4 0 -15 21 -24 48 -10 26 -22 56
-28 67 -7 11 -27 47 -46 80 -18 33 -44 82 -58 110 -13 27 -28 57 -34 65 -5 8
-18 36 -30 62 -11 26 -24 50 -30 53 -5 3 -10 15 -10 26 0 10 -9 24 -20 31 -11
7 -20 20 -20 28 1 20 -72 163 -87 173 -7 4 -13 15 -13 23 0 9 -7 22 -15 30
-23 24 -18 40 28 86 72 74 233 218 242 218 2 0 32 27 64 60 33 33 67 60 75 60
9 0 16 4 16 9 0 5 19 27 41 48 23 21 56 52 73 69 17 17 35 28 39 24 4 -4 3
-29 -3 -56z m8818 -234 c19 -14 32 -55 32 -100 0 -27 4 -50 8 -50 12 0 30
-101 25 -137 -3 -20 1 -40 11 -55 12 -17 16 -46 16 -115 0 -55 4 -93 10 -93 6
0 10 -18 10 -40 0 -23 5 -40 11 -40 9 0 10 -33 7 -115 -3 -63 -1 -115 3 -115
5 0 9 -53 9 -118 0 -78 4 -122 12 -130 17 -17 1899 -17 1916 0 9 9 12 68 12
205 0 106 4 193 8 193 5 0 12 -61 15 -137 10 -199 9 -267 -5 -281 -9 -9 -241
-12 -984 -12 l-972 0 -10 33 c-6 17 -16 122 -22 232 -12 200 -17 249 -44 445
-18 127 -34 214 -47 256 -5 17 -9 46 -9 66 0 20 -7 52 -15 71 -8 20 -14 58
-13 84 l1 48 4 -45 c3 -24 7 -47 11 -50z m-168 -1464 c141 -10 130 0 130 -122
0 -58 -4 -124 -10 -147 -5 -23 -15 -100 -21 -172 -6 -71 -14 -164 -18 -205
l-6 -75 -7 75 c-5 46 -4 76 2 78 6 2 10 48 10 103 0 59 4 99 10 99 6 0 10 27
10 60 0 33 4 60 8 60 12 0 2 202 -11 218 -7 9 -33 12 -86 10 l-76 -3 -1 -130
c-1 -93 -5 -130 -14 -133 -7 -3 -15 0 -19 5 -3 5 -22 17 -41 26 -19 9 -66 35
-105 57 -133 77 -129 76 -163 51 -17 -11 -37 -21 -45 -21 -8 0 -20 -7 -27 -15
-7 -8 -25 -15 -40 -15 -16 0 -30 -4 -32 -8 -1 -4 -30 -20 -63 -36 -33 -15 -72
-34 -87 -42 -14 -8 -36 -14 -47 -14 -12 0 -21 -4 -21 -10 0 -5 -6 -10 -13 -10
-8 0 -21 -8 -30 -18 -16 -18 -25 -33 -119 -211 -27 -51 -72 -137 -101 -190
-28 -53 -62 -118 -76 -146 -28 -54 -44 -75 -59 -75 -10 0 -32 44 -32 63 0 7
-16 50 -35 96 -19 45 -35 90 -35 99 0 9 -7 26 -15 36 -8 11 -15 27 -15 36 0 9
-9 35 -20 58 -11 22 -20 46 -20 51 0 6 -7 27 -16 48 -9 21 -20 47 -24 58 -4
11 -24 63 -44 115 -20 53 -36 102 -36 111 0 8 -7 24 -15 35 -8 10 -15 26 -15
35 0 8 -9 35 -21 58 l-20 43 -92 -4 c-96 -3 -115 -11 -192 -81 -11 -10 -35
-28 -53 -39 -21 -13 -35 -31 -39 -49 -3 -16 -9 -29 -14 -29 -4 0 -10 -8 -13
-17 -3 -10 -4 32 -3 92 1 61 6 116 10 123 6 9 59 12 207 12 123 0 201 4 205
10 7 11 1355 7 1515 -4z m-8573 -10 c4 -4 11 -56 15 -114 12 -169 25 -284 37
-322 6 -19 11 -55 11 -80 0 -25 5 -51 12 -58 7 -7 13 -42 14 -80 1 -63 1 -65
-12 -37 -7 17 -13 45 -14 63 0 35 -25 72 -33 49 -2 -6 3 -17 12 -24 9 -6 14
-14 11 -16 -3 -3 -79 -1 -170 3 -91 5 -252 12 -358 16 -189 7 -192 8 -186 28
4 12 11 23 15 24 5 2 9 12 9 22 0 10 4 22 10 25 5 3 16 21 25 40 22 51 44 98
54 115 5 8 26 51 47 95 21 44 53 110 71 147 18 37 33 74 33 83 0 14 -55 15
-492 15 -271 0 -502 1 -513 2 -28 4 1011 15 1222 13 95 -1 176 -5 180 -9z
m-4459 -13 c12 -22 21 -323 10 -323 -4 0 -8 69 -8 154 0 117 -3 156 -13 165
-10 8 -351 12 -1228 14 l-1214 2 1222 3 c1155 2 1223 1 1231 -15z m969 10
c-553 -3 -661 -5 -673 -17 -11 -11 -14 -53 -15 -193 -1 -202 -12 -181 -24 45
-5 106 -4 146 5 157 11 13 105 15 689 13 l676 -3 -658 -2z m1262 -30 c6 -21
11 -67 11 -103 0 -36 7 -121 15 -190 8 -69 15 -153 15 -187 0 -34 4 -72 9 -85
4 -13 11 -63 14 -113 3 -49 3 -82 1 -72 -3 9 -9 17 -13 17 -4 0 -11 57 -14
127 -4 75 -10 129 -16 131 -7 2 -11 47 -11 118 0 69 -4 114 -10 114 -6 0 -10
48 -10 124 0 88 -4 127 -13 134 -7 6 -37 12 -67 15 -55 3 -55 3 12 5 l67 2 10
-37z m13077 11 c8 -31 -2 -307 -16 -449 -5 -55 -15 -149 -20 -210 -20 -205
-30 -290 -41 -345 -6 -30 -15 -75 -19 -100 -7 -45 -7 -45 -9 18 0 34 3 62 8
62 5 0 6 38 3 85 -5 83 -2 95 29 157 5 10 9 63 9 118 0 68 4 100 11 100 8 0
10 17 6 55 -3 30 -1 57 4 60 5 4 9 100 9 222 0 194 -2 217 -17 229 -28 21
-1888 20 -1909 0 -11 -11 -14 -44 -14 -135 0 -67 -3 -121 -7 -121 -5 0 -6 -52
-5 -115 3 -78 0 -115 -7 -115 -6 0 -11 -18 -11 -40 0 -22 -4 -40 -9 -40 -5 0
-11 -45 -13 -99 -1 -55 -6 -103 -10 -107 -18 -18 -21 13 -10 104 20 160 41
389 48 522 4 69 11 135 15 148 l9 22 980 0 980 0 6 -26z m-4261 -563 c-5 -68
-4 -101 4 -105 6 -4 11 -13 11 -20 0 -8 29 -65 65 -127 36 -63 65 -119 65
-126 0 -6 3 -13 8 -15 13 -5 82 -129 82 -146 0 -10 9 -23 20 -30 11 -7 20 -23
20 -37 0 -14 5 -25 12 -25 7 0 78 32 158 71 80 39 161 78 180 87 19 10 37 20
38 25 2 4 10 7 17 7 15 0 80 35 106 57 39 32 56 -65 75 -427 10 -199 18 -258
37 -277 17 -17 18 -17 23 5 4 12 12 22 19 22 6 0 25 11 41 25 16 14 33 25 38
25 5 0 24 11 42 25 18 14 37 25 43 25 6 0 11 4 11 9 0 5 16 16 35 25 19 9 35
21 35 25 0 14 73 30 210 46 74 9 150 18 168 21 32 5 32 4 32 -35 0 -22 -4 -50
-10 -63 -11 -25 -50 -226 -80 -408 -5 -36 -14 -78 -19 -95 -5 -16 -15 -61 -21
-100 -6 -38 -16 -86 -21 -105 -11 -42 -27 -131 -39 -220 -5 -36 -16 -87 -24
-115 -9 -27 -16 -63 -16 -78 0 -24 2 -26 14 -15 7 8 17 29 21 46 3 18 11 32
16 32 5 0 9 5 9 11 0 6 7 17 15 25 8 9 15 26 15 40 0 13 4 24 9 24 5 0 12 14
16 30 4 17 11 30 16 30 5 0 9 9 9 20 0 11 4 20 9 20 5 0 12 12 15 26 7 28 36
64 36 44 0 -18 -86 -207 -101 -220 -3 -3 -31 -59 -64 -125 -32 -66 -79 -154
-105 -195 -26 -41 -55 -89 -66 -107 -51 -87 -226 -334 -266 -377 -10 -11 -18
-23 -18 -27 0 -4 -6 -14 -12 -21 -7 -7 -31 -38 -54 -68 -23 -30 -59 -74 -80
-96 -21 -23 -63 -71 -93 -108 -112 -137 -590 -601 -687 -666 -12 -9 -40 -31
-61 -51 -21 -19 -53 -44 -72 -55 -19 -10 -48 -33 -65 -50 -17 -16 -65 -52
-107 -80 -42 -27 -114 -74 -160 -106 -46 -31 -140 -85 -209 -121 -69 -35 -187
-97 -264 -136 -186 -97 -286 -134 -286 -105 0 12 -55 14 -335 14 -184 0 -335
3 -335 8 0 4 -23 25 -51 47 -28 22 -63 50 -77 63 -15 13 -46 37 -69 54 -24 17
-43 35 -43 40 0 4 -7 8 -15 8 -8 0 -15 3 -15 8 0 4 -17 18 -37 32 -20 14 -49
37 -65 52 -34 33 -62 42 -79 25 -8 -7 -32 -26 -54 -42 -22 -16 -50 -40 -62
-52 -12 -13 -25 -23 -28 -23 -8 0 -27 -17 -84 -72 -27 -27 -51 -48 -55 -48 -3
0 -23 -17 -44 -37 -21 -21 -67 -63 -102 -93 -34 -30 -79 -71 -99 -90 -20 -19
-56 -51 -81 -71 -25 -21 -69 -60 -97 -88 -48 -47 -53 -55 -53 -96 0 -53 -4
-51 148 -59 65 -4 102 -2 102 4 0 6 41 10 105 10 63 0 105 4 105 10 0 6 16 10
35 10 19 0 35 5 35 10 0 6 30 10 69 10 39 0 73 -4 76 -10 4 -6 -8 -10 -28 -10
-19 0 -72 -7 -118 -15 -117 -20 -414 -47 -479 -43 l-55 3 -11 130 c-14 150
-18 1891 -5 1968 4 26 13 53 20 60 6 6 57 14 114 17 56 3 107 9 114 13 6 4 49
11 95 17 113 13 289 52 413 92 33 11 74 22 90 25 17 3 39 12 50 19 11 8 28 14
37 14 10 0 26 4 36 9 9 5 37 17 62 26 25 9 95 41 155 70 61 30 122 59 138 64
15 6 27 15 27 21 0 5 7 10 15 10 21 0 357 210 385 240 3 3 49 39 103 79 54 40
167 141 250 225 151 151 181 183 245 263 18 23 44 54 58 70 14 15 46 60 72 98
25 39 57 81 69 95 13 14 23 29 23 34 0 5 11 24 25 42 14 18 25 37 25 43 0 5
18 31 40 56 24 27 75 119 126 223 106 220 106 221 139 312 15 41 35 96 46 122
10 26 19 51 19 57 0 5 5 22 12 38 15 38 57 195 69 263 5 30 14 57 19 58 6 2
10 26 10 53 0 27 3 49 6 49 3 0 3 -44 -1 -99z m2007 -383 c-6 -24 -14 -63 -17
-88 -4 -25 -15 -76 -25 -115 -10 -38 -21 -89 -25 -112 -4 -24 -10 -43 -15 -43
-4 0 -10 -17 -12 -37 -6 -48 -27 -129 -44 -170 -8 -17 -14 -40 -14 -50 0 -10
-4 -23 -9 -28 -4 -6 -16 -39 -26 -75 -16 -61 -69 -207 -101 -277 -8 -17 -14
-36 -14 -42 0 -6 -4 -11 -10 -11 -5 0 -10 11 -10 25 0 14 5 25 10 25 6 0 10 7
10 15 0 8 5 15 11 15 5 0 7 5 4 10 -7 12 16 70 27 70 5 0 8 11 8 25 0 14 5 25
11 25 6 0 9 7 6 15 -4 8 -2 17 3 20 6 4 10 15 10 26 0 10 4 19 9 19 5 0 11 26
13 57 3 31 10 59 16 61 7 2 12 19 12 37 0 18 5 35 11 37 6 2 14 27 17 56 2 29
8 52 13 52 5 0 9 6 9 14 0 8 4 16 10 18 5 2 12 40 16 86 4 45 11 82 15 82 5 0
9 7 9 15 0 8 4 15 9 15 5 0 6 20 4 44 -5 43 13 106 29 106 5 0 8 23 8 50 0 28
5 50 10 50 6 0 10 8 10 17 0 9 3 13 6 10 4 -4 2 -26 -4 -49z m133 -267 c-4
-50 -11 -91 -16 -91 -5 0 -9 -7 -9 -15 0 -8 -4 -15 -9 -15 -5 0 -11 -26 -13
-57 -3 -31 -10 -59 -16 -61 -7 -2 -12 -21 -12 -43 0 -21 -4 -39 -10 -39 -5 0
-13 -18 -16 -40 -4 -22 -10 -40 -14 -40 -4 0 -10 -26 -12 -57 -3 -31 -10 -59
-16 -61 -7 -2 -12 -19 -12 -38 0 -19 -4 -34 -9 -34 -5 0 -13 -14 -16 -32 -7
-32 -24 -68 -36 -78 -3 -3 -9 -12 -12 -20 -3 -9 -6 -5 -6 11 -1 14 6 34 14 45
8 10 15 29 15 41 0 12 4 24 9 27 5 3 12 22 16 42 3 20 10 44 15 53 11 19 75
223 85 268 3 18 11 35 16 38 5 4 9 19 9 35 0 34 27 148 40 172 6 10 10 34 10
55 0 20 3 34 6 31 3 -4 2 -47 -1 -97z m1931 -402 c-9 -26 -16 -62 -16 -79 0
-17 -5 -40 -10 -51 -6 -10 -15 -38 -20 -61 -19 -89 -70 -279 -80 -297 -5 -11
-10 -30 -10 -43 0 -13 -7 -33 -15 -44 -8 -10 -15 -28 -15 -39 0 -24 -33 -132
-43 -141 -4 -4 -7 -14 -7 -23 0 -9 -7 -29 -15 -45 -8 -15 -15 -38 -16 -50 0
-20 -1 -20 -9 -1 -4 11 -4 24 1 30 5 5 9 19 9 31 0 12 7 35 15 50 8 16 15 41
15 57 0 15 5 27 10 27 6 0 10 9 10 20 0 11 4 20 9 20 4 0 11 19 14 42 3 24 11
44 16 46 6 2 11 24 11 48 0 24 4 44 10 44 5 0 12 17 15 38 3 20 10 45 16 54 5
10 9 35 9 55 0 21 7 51 15 67 8 15 15 44 15 62 0 19 5 34 10 34 6 0 10 7 10
15 0 8 4 15 9 15 4 0 6 23 3 50 -3 33 -1 50 7 50 6 0 11 17 11 40 0 22 5 40
10 40 6 0 11 12 12 28 1 23 2 22 5 -7 3 -18 -3 -55 -11 -82z m-9422 -225 c55
-40 105 -74 112 -74 13 0 21 -43 30 -155 3 -38 9 -79 14 -90 11 -26 20 -74 30
-160 17 -138 34 -235 43 -235 6 0 20 -10 31 -22 25 -26 51 -44 84 -58 12 -5
25 -17 28 -25 4 -8 12 -15 19 -15 8 0 20 -6 27 -13 15 -15 81 -47 97 -47 6 0
11 -4 11 -9 0 -5 8 -11 18 -15 20 -6 50 -25 70 -43 7 -7 19 -13 27 -13 7 0 15
-7 19 -15 3 -8 3 -15 0 -15 -11 0 -129 64 -142 77 -7 7 -20 13 -28 13 -8 0
-14 5 -14 10 0 6 -6 10 -13 10 -7 0 -55 29 -105 65 -51 36 -95 65 -98 65 -3 0
-10 4 -17 10 -7 5 -41 31 -76 57 -35 26 -92 73 -125 105 -34 32 -65 58 -71 58
-5 0 -4 4 4 9 9 6 24 -2 49 -25 20 -18 37 -32 38 -31 2 2 -6 32 -17 67 -11 36
-27 86 -35 111 -8 26 -14 59 -14 73 0 14 -4 34 -10 44 -5 9 -14 37 -19 62 -23
103 -43 176 -53 187 -5 7 -7 21 -4 31 7 21 -12 72 -26 72 -4 0 -8 7 -8 15 0
12 3 13 13 5 6 -6 57 -45 111 -86z m-4 -681 c59 -48 108 -83 118 -83 6 0 12
-4 14 -8 2 -5 39 -35 83 -67 44 -33 82 -63 83 -67 2 -4 10 -8 17 -8 7 0 15 -3
17 -8 4 -9 102 -72 112 -72 5 0 20 -8 34 -19 15 -10 57 -34 95 -54 38 -20 63
-39 56 -42 -11 -8 -54 11 -77 33 -7 6 -20 12 -28 12 -8 0 -14 3 -14 8 0 4 -14
13 -30 20 -17 8 -36 19 -43 25 -19 18 -50 37 -69 43 -10 4 -18 10 -18 15 0 5
-9 9 -20 9 -11 0 -23 7 -26 15 -4 8 -15 15 -25 15 -22 0 -25 -31 -8 -95 5 -22
14 -71 19 -110 5 -38 17 -113 25 -165 8 -52 19 -124 24 -160 9 -63 18 -117 48
-270 20 -104 36 -240 29 -248 -11 -11 -18 7 -32 80 -8 40 -19 94 -24 120 -5
26 -13 55 -18 65 -5 10 -13 41 -17 69 -3 28 -13 64 -21 79 -8 15 -14 35 -14
44 0 32 -48 224 -81 324 -10 31 -19 68 -19 82 0 14 -4 33 -9 43 -11 22 -52
192 -51 215 0 24 -31 77 -45 77 -7 0 -22 11 -35 25 -13 14 -28 25 -33 25 -10
0 -207 196 -207 207 0 3 35 -28 78 -69 42 -42 93 -89 112 -105z m6774 -773 c4
-14 11 -97 16 -185 5 -88 14 -209 20 -270 5 -60 14 -171 20 -245 15 -203 38
-442 45 -466 4 -12 2 -25 -4 -28 -12 -8 -61 40 -61 58 0 7 -20 52 -44 101 -24
50 -47 100 -50 113 -4 12 -12 22 -17 22 -5 0 -9 9 -9 19 0 11 -16 47 -35 81
-19 34 -35 70 -35 80 0 11 -3 21 -8 24 -4 2 -28 44 -52 93 -24 48 -48 90 -52
91 -5 2 -8 11 -8 20 0 24 -54 132 -64 129 -15 -5 -26 -50 -56 -239 -5 -35 -17
-94 -26 -133 -15 -67 -26 -123 -43 -230 -4 -27 -13 -70 -19 -95 -6 -25 -16
-72 -22 -105 -6 -33 -20 -107 -32 -165 -11 -58 -24 -127 -29 -155 -13 -82 -30
-165 -50 -252 -10 -45 -19 -90 -19 -101 0 -11 -7 -25 -15 -32 -8 -7 -15 -21
-15 -31 0 -10 -4 -28 -9 -41 -5 -13 -37 -111 -71 -218 -34 -107 -65 -204 -70
-215 -5 -11 -11 -33 -15 -50 -13 -60 -36 -69 -77 -30 -15 14 -33 25 -40 25 -7
0 -22 7 -32 15 -11 8 -29 15 -40 15 -12 0 -32 9 -46 20 -14 11 -32 20 -40 20
-9 0 -20 4 -25 8 -6 5 -31 17 -57 26 -27 10 -48 22 -48 27 0 5 -7 9 -16 9 -9
0 -44 13 -78 29 -205 97 -248 110 -254 78 -2 -11 9 -40 26 -66 16 -26 37 -66
47 -89 11 -23 22 -42 27 -42 4 0 8 -11 8 -25 0 -14 4 -25 9 -25 5 0 16 -17 24
-37 16 -40 12 -58 -21 -92 -9 -10 -42 -46 -72 -81 -30 -35 -76 -86 -101 -114
-26 -28 -59 -66 -75 -85 -15 -18 -47 -54 -71 -80 -24 -25 -43 -49 -43 -52 0
-4 -19 -27 -42 -52 -24 -25 -59 -64 -78 -87 -19 -22 -41 -47 -47 -55 -7 -7
-13 -16 -13 -20 0 -11 -25 -32 -47 -39 -23 -7 -43 12 -24 23 8 5 3 17 -14 37
-14 16 -25 38 -25 50 0 11 -7 29 -15 40 -8 10 -15 31 -15 47 0 15 -4 27 -9 27
-5 0 -11 18 -15 41 -4 23 -15 59 -26 81 -10 21 -22 53 -25 71 -4 18 -13 39
-21 48 -12 13 -10 19 16 44 17 16 30 33 30 37 0 8 8 19 36 51 6 7 23 31 38 55
14 23 31 42 36 42 6 0 10 7 10 15 0 8 4 15 8 15 5 0 17 16 28 35 10 19 22 35
26 35 5 0 8 5 8 10 0 6 11 23 25 38 14 15 25 32 25 39 0 6 5 13 11 15 11 4 59
132 59 159 0 9 7 30 15 45 8 16 15 37 15 47 0 10 9 37 20 59 11 23 20 58 20
79 0 20 7 42 15 49 8 7 15 25 15 41 0 16 9 44 20 64 25 44 25 50 1 74 -36 36
-421 26 -421 -11 0 -3 -15 -10 -32 -13 -18 -4 -36 -12 -39 -17 -4 -6 -12 -9
-19 -6 -12 4 37 35 143 91 58 31 169 98 177 106 11 13 77 58 113 76 20 11 37
23 37 27 0 5 7 8 15 8 8 0 15 4 15 9 0 5 8 12 18 15 10 4 27 14 38 24 10 9 44
33 74 52 30 19 83 56 117 83 34 26 67 47 73 47 5 0 10 3 10 8 0 4 16 16 35 26
20 11 51 34 70 53 18 18 64 55 100 83 112 83 182 147 365 330 174 174 305 314
337 361 10 13 22 29 28 35 32 34 74 84 105 124 19 25 40 51 47 58 7 8 18 23
24 35 13 23 16 27 59 78 16 20 30 41 30 47 0 6 3 12 8 14 4 2 44 59 89 128 46
69 87 130 93 137 5 7 10 16 10 22 0 5 6 11 13 14 9 3 13 -34 18 -152 3 -86 9
-167 13 -181z m-6005 291 c40 -21 137 -56 206 -77 33 -9 67 -20 75 -24 35 -18
152 -52 201 -60 30 -5 74 -14 99 -20 188 -50 302 -69 461 -77 140 -7 124 130
124 -1101 0 -1049 0 -1061 -20 -1077 -16 -12 -41 -14 -135 -11 -130 6 -237 17
-325 36 -55 11 -139 24 -320 50 -38 6 -83 15 -99 20 -16 6 -43 10 -60 10 -17
0 -40 7 -50 15 -11 8 -33 15 -49 15 -16 0 -26 4 -22 10 9 14 62 13 67 -2 2 -6
31 -13 66 -16 34 -2 65 -8 68 -13 3 -5 29 -9 59 -9 31 0 55 -5 57 -11 3 -8 42
-14 106 -17 56 -2 105 -9 108 -13 3 -5 18 -9 34 -9 15 0 30 -5 32 -12 3 -7 14
-9 29 -5 l26 7 6 222 c4 123 11 263 17 313 7 73 7 95 -5 119 -8 16 -15 37 -15
48 0 10 -4 26 -10 36 -12 22 -52 130 -78 212 -36 114 -82 244 -92 262 -6 10
-10 29 -10 42 0 14 -4 27 -8 30 -5 3 -17 33 -27 68 -10 35 -22 67 -27 73 -4 5
-8 17 -8 27 0 9 -6 32 -14 50 -18 43 -49 129 -70 198 -10 30 -21 64 -25 75 -5
11 -14 36 -20 55 -7 19 -20 55 -28 80 -19 54 -65 153 -75 160 -4 3 -14 21 -23
40 -25 57 -84 160 -99 175 -8 8 -16 18 -18 23 -5 14 -78 52 -99 52 -10 0 -19
4 -19 9 0 5 -11 12 -25 15 -14 4 -25 11 -25 16 0 6 -7 10 -15 10 -8 0 -15 4
-15 9 0 9 41 -4 89 -28z m-2423 -1515 c-10 -208 -20 -283 -39 -304 -20 -22
-37 -99 -20 -89 22 14 36 -22 29 -71 -4 -26 -10 -64 -13 -84 -6 -42 -33 -54
-33 -14 0 13 -9 35 -20 49 -11 14 -20 30 -20 36 0 19 22 12 27 -9 3 -12 14
-20 25 -20 17 0 19 5 15 33 -10 58 -31 127 -39 127 -12 0 -10 38 2 45 20 13
48 81 54 138 4 32 7 110 7 173 0 103 1 114 15 103 12 -10 14 -31 10 -113z
m2809 -1017 c39 -6 102 -14 140 -19 39 -4 91 -13 118 -20 36 -9 64 -10 121 -1
66 9 81 8 136 -10 33 -11 103 -23 153 -27 l92 -7 7 -77 c4 -43 3 -137 -1 -210
l-8 -133 -2 188 c-1 149 -4 191 -15 203 -18 17 -133 19 -185 3 -20 -6 -68 -27
-106 -45 -39 -19 -81 -34 -93 -34 -20 0 -22 5 -22 60 l0 60 -45 0 c-25 0 -45
5 -45 10 0 6 -16 10 -35 10 -19 0 -35 5 -35 10 0 6 -28 10 -65 10 -36 0 -65 4
-65 9 0 4 -22 6 -49 3 -30 -3 -61 1 -80 9 -36 16 -41 32 -8 24 12 -3 54 -10
92 -16z m1817 -122 c7 -7 21 -16 31 -20 9 -3 17 -11 17 -17 0 -5 5 -10 10 -10
6 0 20 -9 32 -20 12 -11 28 -20 35 -20 7 0 13 -4 13 -8 0 -5 29 -29 65 -53 36
-24 65 -47 65 -51 0 -5 5 -8 11 -8 7 0 31 -16 55 -35 23 -19 45 -35 49 -35 9
0 119 -82 123 -92 2 -4 9 -8 16 -8 19 0 68 -48 61 -59 -3 -6 -17 -6 -34 -1
-22 6 -32 4 -45 -11 -9 -10 -23 -19 -33 -19 -17 0 -114 -27 -148 -41 -70 -29
-99 -39 -114 -39 -9 0 -34 -9 -54 -19 -52 -26 -137 -38 -148 -20 -5 8 -9 39
-8 69 2 141 -21 443 -35 453 -8 5 -6 10 4 17 12 8 13 13 3 30 -7 11 -13 22
-13 25 0 10 29 5 42 -8z m-1454 -109 c6 -13 13 -41 17 -63 7 -48 40 -189 60
-261 8 -28 15 -63 15 -78 0 -14 5 -34 10 -44 13 -23 50 -184 57 -247 3 -27 10
-53 15 -56 11 -7 14 -90 4 -107 -10 -16 -36 -15 -36 1 0 14 -102 122 -130 137
-11 6 -20 17 -20 25 0 21 -38 19 -42 -2 -3 -16 -4 -16 -20 0 -18 18 -78 23
-78 7 0 -5 5 -10 10 -10 6 0 10 -6 10 -14 0 -7 9 -16 20 -19 11 -3 20 -12 20
-21 0 -9 -8 -16 -20 -16 -13 0 -20 7 -20 20 0 11 -6 20 -14 20 -8 0 -16 7 -20
15 -3 8 -12 15 -21 15 -8 0 -15 7 -15 15 0 8 4 15 9 15 6 0 22 11 37 25 15 14
30 25 33 25 10 0 41 -39 41 -50 0 -6 7 -10 15 -10 8 0 15 4 15 9 0 12 -76 91
-88 91 -5 0 -15 11 -22 24 -14 27 -39 41 -50 29 -13 -14 -19 -68 -10 -83 5 -9
3 -28 -6 -49 -10 -23 -11 -37 -4 -39 15 -5 12 -32 -4 -32 -19 0 -26 54 -19
144 4 55 10 76 19 76 8 0 14 5 14 10 0 6 -4 10 -10 10 -5 0 -16 13 -25 30 -17
32 -12 51 32 122 13 21 23 44 23 53 0 8 4 15 10 15 5 0 12 11 16 25 3 14 10
25 15 25 5 0 9 7 9 16 0 9 8 28 18 42 10 15 29 47 42 72 63 123 68 128 88 88z
m4429 -57 c16 -16 60 -64 98 -107 73 -80 71 -77 94 -214 5 -30 15 -86 21 -125
7 -38 14 -85 16 -103 5 -29 7 -32 31 -26 26 7 26 7 7 -12 -43 -45 -388 -274
-411 -274 -3 0 -14 -6 -22 -14 -24 -22 -132 -79 -138 -73 -2 3 0 14 5 24 5 10
13 65 17 123 4 58 11 152 16 210 5 58 14 195 20 305 5 110 14 210 19 223 6 13
10 36 10 52 0 31 6 35 28 21 11 -6 10 -16 -4 -52 -24 -65 -29 -110 -13 -120
15 -9 39 7 39 27 0 31 24 64 47 64 12 0 23 -4 23 -9 0 -7 -65 -98 -79 -111
-19 -17 -40 -115 -39 -177 0 -39 -3 -76 -7 -83 -8 -13 -11 -43 -20 -190 -5
-93 -5 -94 10 -55 8 22 22 73 31 113 9 39 20 75 25 78 13 8 11 94 -2 94 -6 0
1 14 16 32 22 26 26 39 23 80 -2 33 1 48 10 48 6 0 12 8 12 18 0 10 11 40 24
68 20 43 42 164 30 164 -3 0 -14 -5 -26 -11 -15 -8 -28 -7 -51 2 l-31 13 24 7
c14 4 41 4 61 2 21 -3 39 0 43 6 10 16 13 14 43 -18z m-1437 -228 c-1 -10 -7
-29 -14 -41 -12 -22 -14 -23 -29 -8 -8 9 -19 16 -22 16 -4 0 -26 -20 -49 -44
-25 -25 -57 -47 -75 -51 -35 -7 -39 -19 -13 -34 15 -9 15 -12 2 -21 -8 -5 -31
-13 -50 -16 -40 -7 -101 -60 -93 -80 3 -8 20 -14 41 -14 27 0 33 -3 24 -12 -9
-9 -21 -9 -50 0 -22 7 -49 12 -62 12 -12 0 -34 8 -48 19 -15 10 -37 22 -49 25
-13 4 -23 12 -23 17 0 5 -8 9 -17 9 -10 0 -30 10 -45 23 -15 13 -46 30 -70 37
-24 8 -45 17 -48 21 -10 14 -125 72 -155 78 -40 9 -29 26 15 25 19 -1 109 4
200 12 148 12 273 19 482 28 38 1 71 6 75 9 3 4 21 7 40 7 25 0 33 -4 33 -17z
m-6916 -78 c8 -8 19 -15 24 -15 4 0 19 -11 31 -24 24 -25 51 -25 51 1 0 8 5
11 10 8 6 -4 8 -11 5 -16 -10 -15 5 -49 21 -49 7 0 27 -13 42 -30 16 -16 34
-30 39 -30 5 0 20 -11 33 -25 13 -14 29 -25 37 -25 7 0 13 -3 13 -7 0 -14 60
-42 75 -37 9 4 18 -1 22 -12 8 -22 50 -64 64 -64 5 0 20 -11 33 -25 13 -14 28
-25 35 -25 6 0 11 -4 11 -9 0 -5 10 -13 23 -17 12 -4 29 -15 38 -25 9 -11 20
-19 24 -19 12 0 80 -33 86 -43 6 -9 27 -22 86 -52 35 -18 62 -45 46 -45 -11 0
-193 109 -287 171 -32 21 -62 39 -66 39 -5 0 -10 3 -12 8 -1 4 -28 23 -58 42
-30 19 -57 37 -60 40 -7 7 -42 29 -60 37 -8 4 -17 9 -20 12 -3 3 -32 26 -65
51 -33 25 -69 53 -79 63 -11 9 -23 17 -27 17 -4 0 -21 14 -37 30 -17 17 -33
30 -37 30 -3 0 -11 5 -18 10 -7 6 -23 19 -37 30 -14 10 -20 19 -13 20 6 0 18
-7 27 -15z m-19 -303 c11 -7 28 -15 38 -18 9 -4 17 -9 17 -13 0 -4 14 -15 32
-25 17 -11 39 -25 47 -33 44 -37 432 -299 464 -314 18 -8 17 -8 -8 -3 -16 3
-32 9 -35 13 -3 4 -18 11 -35 15 -16 4 -35 16 -43 27 -7 10 -19 19 -27 19 -7
0 -22 11 -32 24 -10 13 -36 29 -57 37 -22 8 -44 22 -50 32 -6 9 -19 17 -29 17
-10 0 -20 7 -23 15 -4 8 -14 15 -24 15 -10 0 -20 7 -24 15 -3 8 -11 15 -19 15
-7 0 -23 11 -35 25 -12 14 -27 25 -32 25 -12 0 -29 12 -77 58 -19 17 -38 32
-41 32 -10 0 -42 33 -42 44 0 7 3 7 8 1 4 -5 16 -16 27 -23z m3935 -61 c0 -5
14 -22 30 -38 17 -15 30 -33 30 -39 0 -7 16 -25 37 -41 41 -33 40 -57 -1 -73
-14 -5 -31 -18 -38 -30 -7 -11 -21 -20 -30 -20 -10 0 -18 -4 -18 -9 0 -5 -14
-13 -32 -16 -32 -7 -67 -39 -68 -62 0 -6 -9 -14 -19 -18 -11 -3 -26 -17 -35
-30 -9 -14 -23 -25 -31 -25 -8 0 -25 -11 -37 -25 -22 -25 -48 -33 -48 -15 0 6
16 18 35 27 26 12 35 23 35 41 0 20 -4 23 -22 18 -13 -3 -33 -6 -45 -6 -19 0
-21 -5 -19 -47 2 -27 -3 -60 -11 -75 -17 -34 -37 -38 -27 -5 4 12 7 44 6 72 0
27 3 52 8 55 5 3 14 71 20 150 12 166 16 190 31 190 7 0 9 -15 5 -42 -8 -48
-9 -79 -7 -123 1 -16 -1 -49 -5 -73 -7 -49 8 -76 37 -67 12 4 21 1 25 -9 10
-26 51 -20 58 9 4 14 13 25 21 25 8 0 15 5 15 10 0 6 5 10 10 10 6 0 23 11 38
25 15 14 36 25 48 25 12 0 24 7 28 15 3 8 15 15 26 15 11 0 20 6 20 14 0 8 3
21 6 29 4 11 -2 16 -18 19 -19 2 -25 12 -32 50 -6 30 -15 48 -26 51 -22 6 -34
47 -14 47 8 0 14 -4 14 -9z m3855 -21 c3 -6 0 -16 -7 -24 -8 -7 -20 -33 -27
-57 -7 -24 -17 -54 -22 -67 -5 -13 -9 -32 -9 -42 0 -11 -4 -20 -10 -20 -5 0
-10 -7 -10 -16 0 -16 -42 -154 -61 -201 -7 -19 -5 -23 11 -23 11 0 20 4 20 10
0 5 7 7 15 4 8 -4 15 -1 15 5 0 6 9 11 20 11 11 0 20 5 20 10 0 6 7 10 15 10
8 0 15 4 15 9 0 5 14 12 30 16 17 4 30 10 30 15 0 4 16 11 35 14 19 4 35 11
35 16 0 6 5 10 11 10 6 0 17 7 25 15 17 16 49 21 39 6 -3 -6 -27 -20 -53 -33
-26 -13 -53 -29 -60 -35 -7 -7 -19 -13 -27 -13 -7 0 -15 -4 -17 -8 -1 -4 -28
-18 -58 -31 -30 -13 -86 -42 -125 -65 -77 -46 -102 -59 -156 -77 l-37 -12 -76
77 c-72 73 -94 116 -62 116 8 0 21 8 28 18 7 9 34 34 60 55 26 21 53 43 60 50
15 14 122 105 157 133 13 10 42 35 65 55 94 84 100 87 111 69z m158 -612 c-12
-13 -31 -45 -43 -73 -12 -27 -31 -70 -42 -95 -11 -25 -24 -54 -28 -65 -37 -86
-54 -124 -65 -147 -7 -15 -16 -41 -20 -58 -10 -44 -31 -37 -44 14 -6 25 -15
48 -21 51 -5 3 -10 17 -10 30 0 13 -6 36 -14 52 -7 15 -23 49 -35 74 -19 39
-26 46 -44 41 -41 -10 22 32 108 73 44 21 114 54 155 74 64 30 100 46 119 50
3 1 -5 -9 -16 -21z m-8159 -274 c-1 -16 -16 -52 -33 -80 -17 -28 -31 -59 -31
-68 0 -9 -7 -19 -15 -22 -10 -4 -15 -20 -15 -45 0 -26 -5 -42 -15 -45 -10 -4
-15 -20 -15 -44 0 -30 -5 -40 -20 -45 -16 -5 -20 -15 -20 -46 0 -21 -4 -39
-10 -39 -5 0 -10 -16 -10 -35 0 -19 -4 -35 -9 -35 -5 0 -15 -16 -21 -35 -6
-19 -17 -41 -23 -48 -21 -23 -47 -78 -47 -100 0 -12 -7 -31 -15 -41 -8 -11
-15 -39 -15 -63 0 -33 -5 -45 -21 -54 l-21 -11 20 -18 c13 -12 18 -27 15 -40
-7 -26 -30 -26 -38 0 -11 34 -28 23 -21 -14 5 -24 2 -39 -9 -49 -8 -9 -15 -27
-15 -40 0 -14 -7 -30 -15 -37 -8 -7 -15 -20 -15 -29 0 -10 -9 -27 -20 -39 -11
-12 -20 -29 -20 -39 0 -10 -7 -31 -15 -47 -8 -15 -15 -39 -15 -52 0 -12 -4
-26 -10 -29 -5 -3 -10 -19 -10 -34 0 -29 -21 -57 -33 -44 -4 3 -8 0 -8 -8 -4
-41 -8 -57 -23 -84 -21 -40 -21 -66 0 -58 21 8 34 -13 34 -55 0 -42 -18 -39
-42 7 -9 18 -24 38 -33 45 -15 11 -16 17 -6 49 7 21 17 37 22 37 5 0 9 11 9
24 0 14 7 31 15 40 8 8 15 25 15 38 0 13 4 28 9 33 13 14 61 138 61 158 0 9 4
17 9 17 5 0 13 15 17 33 3 17 15 43 25 56 11 13 19 34 19 47 0 12 5 26 10 29
6 3 10 17 10 30 0 13 7 30 15 39 8 8 15 21 15 28 0 7 7 22 15 32 8 11 15 27
15 37 0 9 9 28 20 42 11 14 20 39 20 55 0 16 7 35 15 42 8 7 15 22 15 34 0 12
4 26 8 32 5 5 15 29 22 53 8 24 20 45 27 48 8 3 13 21 13 43 0 21 3 40 8 42
11 5 42 76 42 97 0 10 9 26 20 36 11 10 20 30 20 45 0 15 7 33 15 40 8 7 15
24 15 37 0 14 9 36 20 50 11 14 20 34 20 44 0 26 33 89 45 85 6 -2 9 -16 9
-32z m7486 -980 c0 -7 10 -30 22 -51 12 -21 34 -63 50 -93 16 -30 42 -75 58
-100 16 -25 29 -52 29 -61 1 -9 8 -22 16 -29 8 -7 15 -16 15 -21 0 -5 16 -33
35 -63 19 -30 35 -62 35 -71 0 -8 4 -15 10 -15 5 0 12 -11 16 -25 3 -14 9 -25
13 -25 4 0 13 -16 20 -35 7 -19 16 -35 19 -35 4 0 16 -22 27 -50 11 -27 23
-50 26 -50 4 0 13 -15 19 -34 6 -19 17 -37 25 -40 8 -3 15 -15 15 -26 0 -11 4
-20 8 -20 5 0 16 -17 25 -37 9 -21 20 -45 25 -53 42 -71 46 -100 11 -100 -10
0 -19 -3 -19 -8 0 -4 -9 -12 -19 -17 -10 -6 -50 -29 -88 -53 -38 -23 -79 -42
-91 -42 -13 0 -22 -6 -22 -15 0 -20 -23 -19 -48 3 -17 14 -122 148 -187 238
-26 35 -80 103 -105 130 -11 12 -20 25 -20 28 0 6 -95 132 -110 146 -3 3 -18
23 -35 45 -16 22 -32 42 -35 45 -4 3 -18 23 -32 45 -14 22 -42 58 -63 80 -20
22 -43 52 -51 68 -8 15 -19 27 -24 27 -6 0 -10 5 -10 10 0 6 -10 24 -21 39
-20 28 -19 51 2 51 5 0 19 9 31 20 12 11 30 20 41 20 10 0 33 11 51 25 18 14
40 25 49 25 8 0 22 7 30 15 8 8 61 38 116 66 56 28 104 55 107 60 7 12 34 -1
34 -17z m-8294 -1120 c29 -62 30 -80 4 -87 -16 -4 -20 2 -26 39 -7 48 -34 63
-34 19 0 -14 -4 -25 -10 -25 -10 0 -32 -72 -32 -109 0 -13 5 -27 12 -31 16
-10 4 -30 -19 -30 -22 0 -41 -19 -41 -42 0 -10 -7 -21 -15 -24 -8 -4 -15 -18
-15 -34 0 -15 -9 -39 -21 -53 -15 -20 -18 -31 -10 -44 11 -21 -3 -53 -24 -53
-8 0 -15 -9 -15 -20 0 -11 -4 -20 -8 -20 -4 0 -19 -21 -32 -48 -23 -45 -24
-46 -28 -19 -2 16 5 39 17 56 12 16 21 36 21 44 0 8 7 20 15 27 8 7 15 25 15
41 0 16 4 29 9 29 5 0 12 15 15 34 4 18 15 44 26 56 11 13 20 33 20 46 0 13 4
25 9 28 5 4 17 32 26 64 9 31 26 73 36 93 10 20 19 43 19 52 0 8 7 20 15 27 8
7 15 25 15 40 0 33 24 46 28 16 2 -12 14 -44 28 -72z"/>
<path d="M11783 13242 c-26 -23 -53 -68 -53 -87 0 -18 26 -21 32 -3 2 6 10 8
16 4 16 -10 15 -26 -2 -26 -15 0 -26 -21 -26 -52 0 -12 16 -40 35 -64 19 -23
35 -45 35 -48 0 -3 16 -21 35 -40 19 -20 35 -40 35 -46 0 -17 23 -11 51 13 21
18 28 34 33 85 6 56 5 62 -12 62 -28 0 -43 20 -27 36 20 20 33 17 41 -8 8 -25
28 -48 42 -48 5 0 15 -6 22 -14 9 -12 7 -17 -9 -28 -28 -17 -28 -64 -1 -71 27
-7 29 -60 3 -55 -11 2 -19 14 -21 31 -4 33 -42 40 -42 7 0 -11 -11 -25 -26
-33 l-25 -13 35 -35 c20 -19 36 -38 36 -42 0 -5 6 -15 13 -22 6 -8 28 -33 47
-56 19 -23 47 -54 63 -69 15 -16 27 -32 27 -37 0 -5 8 -18 18 -29 10 -10 37
-45 61 -76 24 -32 47 -58 52 -58 5 0 9 -6 9 -13 0 -7 11 -21 25 -31 14 -10 25
-24 25 -31 0 -17 38 -55 55 -55 8 0 15 5 15 11 0 6 11 20 25 31 14 11 25 28
25 38 0 9 6 23 14 29 11 9 16 47 19 144 3 73 8 146 11 162 6 27 0 37 -60 98
-37 37 -72 67 -78 67 -7 0 -33 23 -59 50 -26 28 -53 50 -61 50 -7 0 -21 11
-32 24 -10 14 -28 27 -41 31 -13 3 -23 10 -23 15 0 6 -6 10 -13 10 -8 0 -24
11 -37 25 -13 14 -29 25 -36 25 -6 0 -14 7 -18 15 -3 8 -15 15 -26 15 -11 0
-20 4 -20 9 0 10 -17 20 -90 58 -19 10 -37 20 -40 23 -3 3 -17 13 -31 22 -25
16 -28 16 -46 0z m316 -499 c10 -23 21 -33 37 -33 19 0 26 -8 35 -42 8 -27 27
-56 51 -78 21 -20 38 -45 38 -57 0 -13 8 -24 20 -28 13 -4 20 -15 20 -31 0
-17 6 -24 20 -24 22 0 70 -44 70 -65 0 -38 -42 -16 -61 32 -5 13 -17 23 -28
23 -11 0 -25 13 -34 33 -9 17 -25 38 -36 45 -12 7 -21 17 -21 23 0 10 -5 17
-45 63 -14 16 -25 35 -25 42 0 7 -22 36 -50 63 -55 55 -62 74 -27 69 14 -2 27
-15 36 -35z"/>
<path d="M8000 11580 c0 -19 -5 -30 -14 -30 -20 0 -27 -25 -20 -70 l6 -38 -45
5 c-38 5 -46 2 -51 -14 -6 -19 -69 -53 -99 -53 -21 0 -67 -21 -67 -31 0 -15
53 -49 76 -49 27 0 74 36 74 57 0 7 5 13 10 13 6 0 20 9 32 20 12 10 25 17 30
14 10 -6 11 -64 0 -64 -4 0 -13 -9 -20 -20 -9 -15 -9 -25 0 -44 12 -27 28 -26
28 2 0 9 7 30 15 46 8 15 15 44 15 64 0 19 7 43 16 53 9 10 18 36 21 59 3 23
12 44 19 47 8 3 14 18 14 34 0 22 -5 29 -20 29 -16 0 -20 -7 -20 -30z"/>
<path d="M8971 10922 c-14 -31 -35 -79 -47 -107 -12 -27 -34 -81 -50 -120 -15
-38 -32 -71 -36 -73 -4 -2 -8 -9 -8 -16 0 -7 -8 -30 -19 -52 -10 -21 -26 -57
-35 -79 -19 -44 -33 -75 -65 -148 -12 -26 -29 -67 -38 -90 -9 -23 -20 -44 -23
-47 -6 -5 -40 -102 -40 -114 0 -3 7 -6 15 -6 19 0 19 -9 1 -24 -13 -11 -66
-213 -66 -253 0 -12 -4 -25 -10 -28 -5 -3 -10 -22 -10 -41 0 -19 -6 -47 -14
-62 -8 -15 -17 -50 -21 -77 -4 -28 -13 -56 -19 -64 -6 -8 -14 -44 -18 -80 -7
-76 -24 -158 -38 -183 -6 -10 -10 -29 -10 -42 0 -14 -4 -28 -10 -31 -5 -3 -10
-21 -10 -38 0 -18 -7 -42 -15 -54 -11 -15 -14 -34 -9 -61 4 -27 2 -43 -9 -53
-8 -9 -18 -46 -22 -87 -6 -62 -5 -72 9 -72 9 0 16 6 16 14 0 7 15 21 34 30 32
15 48 27 128 99 18 15 37 27 44 27 6 0 14 7 18 15 3 8 11 15 19 15 7 0 28 16
47 35 19 19 39 35 46 35 7 0 25 13 40 29 15 17 38 32 51 36 13 3 23 9 23 14 0
5 6 16 13 23 18 19 36 123 48 273 5 72 14 173 19 225 5 52 14 156 20 230 6 74
13 144 17 154 3 11 9 76 13 145 9 133 31 382 51 566 22 202 14 241 -30 137z"/>
<path d="M11530 10861 c0 -16 7 -48 15 -71 8 -23 15 -56 15 -73 0 -17 6 -49
14 -72 8 -22 24 -83 35 -135 20 -90 42 -178 61 -245 4 -16 14 -61 20 -100 7
-38 17 -78 22 -88 5 -10 13 -39 18 -65 5 -26 16 -78 25 -117 9 -38 21 -88 25
-110 33 -153 52 -231 61 -240 5 -5 9 -24 9 -43 0 -19 7 -55 15 -81 14 -46 40
-151 55 -226 8 -39 28 -120 48 -198 6 -21 13 -42 17 -45 8 -8 279 -13 316 -6
14 3 31 15 36 27 27 56 64 157 75 202 6 28 18 57 25 66 7 8 13 23 13 33 0 9 8
33 19 54 10 20 26 66 35 102 9 35 23 71 31 80 8 9 15 24 15 33 0 10 4 25 9 35
18 34 61 147 61 160 0 7 4 20 9 30 10 19 32 77 77 207 8 22 19 48 24 57 6 10
10 26 10 36 0 10 5 23 11 29 6 6 22 48 35 94 13 46 29 88 34 93 6 6 10 19 10
31 0 11 6 29 14 40 16 24 57 137 52 143 -9 8 -58 -33 -67 -54 -4 -13 -23 -30
-41 -37 -18 -8 -51 -29 -74 -48 -23 -19 -58 -47 -79 -64 -22 -16 -56 -45 -78
-62 -21 -18 -43 -33 -47 -33 -5 0 -22 -13 -38 -30 -17 -16 -35 -30 -40 -30 -6
0 -12 -4 -14 -8 -1 -5 -28 -26 -58 -47 -30 -21 -62 -48 -72 -59 -14 -17 -20
-18 -42 -8 -15 6 -30 20 -33 29 -4 10 -17 29 -30 43 -13 14 -23 28 -23 33 0 4
-11 12 -25 17 -14 5 -25 15 -25 22 0 7 -27 42 -60 78 -33 36 -60 69 -60 73 0
4 -9 18 -21 30 -12 12 -38 45 -59 72 -21 28 -56 70 -79 95 -22 25 -41 49 -41
53 0 4 -12 20 -28 35 -15 15 -41 45 -57 67 -17 22 -44 54 -61 71 -16 17 -38
46 -48 65 -40 78 -48 89 -57 89 -5 0 -9 -13 -9 -29z"/>
<path d="M13317 9736 c-21 -14 -48 -37 -61 -51 -13 -14 -26 -25 -30 -25 -8 0
-42 -28 -75 -61 -14 -14 -55 -47 -90 -75 -35 -27 -82 -66 -104 -86 -21 -21
-42 -38 -46 -38 -4 0 -24 -16 -45 -35 -21 -19 -41 -35 -44 -35 -2 0 -15 -11
-28 -25 -13 -14 -26 -25 -30 -25 -4 0 -17 -10 -30 -22 -12 -13 -39 -36 -59
-53 -20 -16 -53 -45 -73 -62 -20 -18 -41 -33 -45 -33 -5 0 -23 -15 -41 -32
-17 -18 -49 -46 -71 -63 -22 -16 -51 -39 -63 -51 l-24 -21 39 -8 c96 -18 142
-26 194 -34 31 -5 79 -13 105 -19 27 -6 74 -16 104 -22 30 -5 81 -15 112 -21
56 -11 58 -11 82 17 14 16 26 37 26 47 0 9 5 17 10 17 6 0 10 9 10 21 0 11 6
33 14 47 8 15 27 59 42 97 16 39 31 72 35 75 4 3 10 21 13 40 7 34 18 65 37
102 5 10 9 24 9 31 0 8 11 35 25 61 14 26 25 53 25 61 0 8 14 40 30 72 17 31
30 65 30 75 0 9 7 23 15 32 8 8 15 23 15 33 0 10 7 29 16 41 8 12 14 29 12 38
-2 13 -10 11 -41 -10z"/>
<path d="M10416 8358 c-24 -35 -51 -71 -60 -80 -9 -10 -16 -22 -16 -27 0 -6
-14 -25 -31 -43 -17 -18 -35 -42 -40 -53 -19 -38 -36 -66 -57 -88 -11 -12 -38
-50 -59 -83 -22 -34 -54 -80 -71 -102 -18 -22 -32 -45 -32 -51 0 -6 -5 -11
-10 -11 -30 0 30 -64 140 -151 30 -24 64 -53 75 -64 11 -11 49 -45 85 -75 35
-30 81 -71 100 -90 20 -19 61 -55 90 -80 30 -25 67 -58 83 -73 34 -33 62 -30
51 5 -4 13 -8 37 -9 53 -1 17 -7 43 -13 58 -7 16 -12 52 -12 80 0 29 -5 70
-11 92 -6 22 -14 74 -19 115 -5 41 -14 104 -20 140 -6 36 -15 99 -20 140 -4
41 -13 91 -19 110 -6 19 -11 63 -11 97 0 34 -4 64 -9 67 -4 3 -11 33 -14 66
-14 132 -27 138 -91 48z"/>
<path d="M13650 8886 c0 -11 -20 -14 -93 -14 -167 0 -257 -17 -257 -49 0 -7
-5 -13 -11 -13 -6 0 -8 -9 -4 -20 4 -11 2 -20 -4 -20 -6 0 -11 -11 -11 -25 0
-14 -4 -25 -9 -25 -5 0 -12 -13 -16 -30 -4 -16 -11 -30 -16 -30 -5 0 -9 -9 -9
-20 0 -11 -4 -20 -9 -20 -5 0 -12 -12 -16 -27 -3 -15 -15 -34 -25 -43 -10 -9
-22 -28 -25 -43 -4 -15 -11 -27 -16 -27 -12 0 -11 -47 1 -55 6 -3 10 -15 10
-27 0 -11 6 -32 14 -46 8 -15 20 -48 27 -75 6 -26 16 -50 20 -53 5 -3 9 -14 9
-25 0 -10 5 -19 10 -19 6 0 8 -11 4 -25 -8 -32 18 -34 34 -2 17 32 34 56 61
86 13 14 34 42 47 63 13 20 28 39 34 43 14 9 13 42 -2 47 -9 3 -9 6 0 12 7 4
12 2 12 -3 0 -6 7 -11 15 -11 8 0 15 7 15 15 0 8 9 20 20 27 23 15 26 36 6 44
-8 3 -12 12 -9 20 8 21 23 17 23 -6 0 -25 18 -26 27 -2 4 9 9 19 12 22 13 11
61 79 61 86 0 4 10 17 23 28 12 12 27 29 32 38 41 62 121 168 127 168 15 0 8
31 -11 51 -16 17 -23 19 -41 9 -16 -9 -25 -9 -33 -1 -15 15 -27 14 -27 -3z"/>
</g>
</svg>
